<?xml version="1.0" encoding="utf-8" standalone="no"?>
<!DOCTYPE svg PUBLIC "-//W3C//DTD SVG 1.1//EN"
  "http://www.w3.org/Graphics/SVG/1.1/DTD/svg11.dtd">
<svg xmlns:xlink="http://www.w3.org/1999/xlink" width="720pt" height="180pt" viewBox="0 0 720 180" xmlns="http://www.w3.org/2000/svg" version="1.1">
 <metadata>
  <rdf:RDF xmlns:dc="http://purl.org/dc/elements/1.1/" xmlns:cc="http://creativecommons.org/ns#" xmlns:rdf="http://www.w3.org/1999/02/22-rdf-syntax-ns#">
   <cc:Work>
    <dc:type rdf:resource="http://purl.org/dc/dcmitype/StillImage"/>
    <dc:date>2025-06-17T14:15:46.132007</dc:date>
    <dc:format>image/svg+xml</dc:format>
    <dc:creator>
     <cc:Agent>
      <dc:title>Matplotlib v3.7.0, https://matplotlib.org/</dc:title>
     </cc:Agent>
    </dc:creator>
   </cc:Work>
  </rdf:RDF>
 </metadata>
 <defs>
  <style type="text/css">*{stroke-linejoin: round; stroke-linecap: butt}</style>
 </defs>
 <g id="figure_1">
  <g id="patch_1">
   <path d="M 0 180 
L 720 180 
L 720 0 
L 0 0 
z
" style="fill: #ffffff"/>
  </g>
  <g id="axes_1">
   <g id="patch_2">
    <path d="M 32.56 152.12 
L 177.3 152.12 
L 177.3 10.8 
L 32.56 10.8 
z
" style="fill: #ffffff"/>
   </g>
   <g id="matplotlib.axis_1">
    <g id="xtick_1">
     <g id="line2d_1">
      <path d="M 39.139091 152.12 
L 39.139091 10.8 
" clip-path="url(#p1db7db3481)" style="fill: none; stroke: #b0b0b0; stroke-width: 0.8; stroke-linecap: square"/>
     </g>
     <g id="line2d_2">
      <defs>
       <path id="m184fb94e13" d="M 0 0 
L 0 3.5 
" style="stroke: #000000; stroke-width: 0.8"/>
      </defs>
      <g>
       <use xlink:href="#m184fb94e13" x="39.139091" y="152.12" style="stroke: #000000; stroke-width: 0.8"/>
      </g>
     </g>
     <g id="text_1">
      <!-- 0 -->
      <g transform="translate(35.957841 166.718437) scale(0.1 -0.1)">
       <defs>
        <path id="DejaVuSans-30" d="M 2034 4250 
Q 1547 4250 1301 3770 
Q 1056 3291 1056 2328 
Q 1056 1369 1301 889 
Q 1547 409 2034 409 
Q 2525 409 2770 889 
Q 3016 1369 3016 2328 
Q 3016 3291 2770 3770 
Q 2525 4250 2034 4250 
z
M 2034 4750 
Q 2819 4750 3233 4129 
Q 3647 3509 3647 2328 
Q 3647 1150 3233 529 
Q 2819 -91 2034 -91 
Q 1250 -91 836 529 
Q 422 1150 422 2328 
Q 422 3509 836 4129 
Q 1250 4750 2034 4750 
z
" transform="scale(0.015625)"/>
       </defs>
       <use xlink:href="#DejaVuSans-30"/>
      </g>
     </g>
    </g>
    <g id="xtick_2">
     <g id="line2d_3">
      <path d="M 92.845955 152.12 
L 92.845955 10.8 
" clip-path="url(#p1db7db3481)" style="fill: none; stroke: #b0b0b0; stroke-width: 0.8; stroke-linecap: square"/>
     </g>
     <g id="line2d_4">
      <g>
       <use xlink:href="#m184fb94e13" x="92.845955" y="152.12" style="stroke: #000000; stroke-width: 0.8"/>
      </g>
     </g>
     <g id="text_2">
      <!-- 20 -->
      <g transform="translate(86.483455 166.718437) scale(0.1 -0.1)">
       <defs>
        <path id="DejaVuSans-32" d="M 1228 531 
L 3431 531 
L 3431 0 
L 469 0 
L 469 531 
Q 828 903 1448 1529 
Q 2069 2156 2228 2338 
Q 2531 2678 2651 2914 
Q 2772 3150 2772 3378 
Q 2772 3750 2511 3984 
Q 2250 4219 1831 4219 
Q 1534 4219 1204 4116 
Q 875 4013 500 3803 
L 500 4441 
Q 881 4594 1212 4672 
Q 1544 4750 1819 4750 
Q 2544 4750 2975 4387 
Q 3406 4025 3406 3419 
Q 3406 3131 3298 2873 
Q 3191 2616 2906 2266 
Q 2828 2175 2409 1742 
Q 1991 1309 1228 531 
z
" transform="scale(0.015625)"/>
       </defs>
       <use xlink:href="#DejaVuSans-32"/>
       <use xlink:href="#DejaVuSans-30" x="63.623047"/>
      </g>
     </g>
    </g>
    <g id="xtick_3">
     <g id="line2d_5">
      <path d="M 146.55282 152.12 
L 146.55282 10.8 
" clip-path="url(#p1db7db3481)" style="fill: none; stroke: #b0b0b0; stroke-width: 0.8; stroke-linecap: square"/>
     </g>
     <g id="line2d_6">
      <g>
       <use xlink:href="#m184fb94e13" x="146.55282" y="152.12" style="stroke: #000000; stroke-width: 0.8"/>
      </g>
     </g>
     <g id="text_3">
      <!-- 40 -->
      <g transform="translate(140.19032 166.718437) scale(0.1 -0.1)">
       <defs>
        <path id="DejaVuSans-34" d="M 2419 4116 
L 825 1625 
L 2419 1625 
L 2419 4116 
z
M 2253 4666 
L 3047 4666 
L 3047 1625 
L 3713 1625 
L 3713 1100 
L 3047 1100 
L 3047 0 
L 2419 0 
L 2419 1100 
L 313 1100 
L 313 1709 
L 2253 4666 
z
" transform="scale(0.015625)"/>
       </defs>
       <use xlink:href="#DejaVuSans-34"/>
       <use xlink:href="#DejaVuSans-30" x="63.623047"/>
      </g>
     </g>
    </g>
   </g>
   <g id="matplotlib.axis_2">
    <g id="ytick_1">
     <g id="line2d_7">
      <path d="M 32.56 139.904452 
L 177.3 139.904452 
" clip-path="url(#p1db7db3481)" style="fill: none; stroke: #b0b0b0; stroke-width: 0.8; stroke-linecap: square"/>
     </g>
     <g id="line2d_8">
      <defs>
       <path id="m63242f0fa5" d="M 0 0 
L -3.5 0 
" style="stroke: #000000; stroke-width: 0.8"/>
      </defs>
      <g>
       <use xlink:href="#m63242f0fa5" x="32.56" y="139.904452" style="stroke: #000000; stroke-width: 0.8"/>
      </g>
     </g>
     <g id="text_4">
      <!-- −1 -->
      <g transform="translate(10.817812 143.703671) scale(0.1 -0.1)">
       <defs>
        <path id="DejaVuSans-2212" d="M 678 2272 
L 4684 2272 
L 4684 1741 
L 678 1741 
L 678 2272 
z
" transform="scale(0.015625)"/>
        <path id="DejaVuSans-31" d="M 794 531 
L 1825 531 
L 1825 4091 
L 703 3866 
L 703 4441 
L 1819 4666 
L 2450 4666 
L 2450 531 
L 3481 531 
L 3481 0 
L 794 0 
L 794 531 
z
" transform="scale(0.015625)"/>
       </defs>
       <use xlink:href="#DejaVuSans-2212"/>
       <use xlink:href="#DejaVuSans-31" x="83.789062"/>
      </g>
     </g>
    </g>
    <g id="ytick_2">
     <g id="line2d_9">
      <path d="M 32.56 101.48823 
L 177.3 101.48823 
" clip-path="url(#p1db7db3481)" style="fill: none; stroke: #b0b0b0; stroke-width: 0.8; stroke-linecap: square"/>
     </g>
     <g id="line2d_10">
      <g>
       <use xlink:href="#m63242f0fa5" x="32.56" y="101.48823" style="stroke: #000000; stroke-width: 0.8"/>
      </g>
     </g>
     <g id="text_5">
      <!-- 0 -->
      <g transform="translate(19.1975 105.287449) scale(0.1 -0.1)">
       <use xlink:href="#DejaVuSans-30"/>
      </g>
     </g>
    </g>
    <g id="ytick_3">
     <g id="line2d_11">
      <path d="M 32.56 63.072007 
L 177.3 63.072007 
" clip-path="url(#p1db7db3481)" style="fill: none; stroke: #b0b0b0; stroke-width: 0.8; stroke-linecap: square"/>
     </g>
     <g id="line2d_12">
      <g>
       <use xlink:href="#m63242f0fa5" x="32.56" y="63.072007" style="stroke: #000000; stroke-width: 0.8"/>
      </g>
     </g>
     <g id="text_6">
      <!-- 1 -->
      <g transform="translate(19.1975 66.871226) scale(0.1 -0.1)">
       <use xlink:href="#DejaVuSans-31"/>
      </g>
     </g>
    </g>
    <g id="ytick_4">
     <g id="line2d_13">
      <path d="M 32.56 24.655785 
L 177.3 24.655785 
" clip-path="url(#p1db7db3481)" style="fill: none; stroke: #b0b0b0; stroke-width: 0.8; stroke-linecap: square"/>
     </g>
     <g id="line2d_14">
      <g>
       <use xlink:href="#m63242f0fa5" x="32.56" y="24.655785" style="stroke: #000000; stroke-width: 0.8"/>
      </g>
     </g>
     <g id="text_7">
      <!-- 2 -->
      <g transform="translate(19.1975 28.455004) scale(0.1 -0.1)">
       <use xlink:href="#DejaVuSans-32"/>
      </g>
     </g>
    </g>
   </g>
   <g id="line2d_15">
    <path d="M 39.139091 131.644659 
L 41.824434 123.615114 
L 44.509777 125.622501 
L 47.195121 133.652045 
L 49.880464 145.696364 
L 52.565807 137.666817 
L 55.25115 137.666817 
L 57.936494 131.644659 
L 60.621837 131.644659 
L 63.30718 67.4083 
L 65.992523 75.437844 
L 68.677866 145.696364 
L 71.36321 129.637273 
L 74.048553 125.622501 
L 76.733896 123.615114 
L 79.419239 121.607728 
L 82.104583 141.681587 
L 84.789926 141.681587 
L 87.475269 141.681587 
L 90.160612 133.652045 
L 92.845955 131.644659 
L 95.531299 137.666817 
L 98.216642 145.696364 
L 100.901985 145.696364 
L 103.587328 137.666817 
L 106.272672 123.615114 
L 108.958015 129.637273 
L 111.643358 137.666817 
L 114.328701 145.696364 
L 117.014045 141.681587 
L 119.699388 141.681587 
L 122.384731 129.637273 
L 125.070074 127.629887 
L 127.755417 141.681587 
L 130.440761 145.696364 
L 133.126104 137.666817 
L 135.811447 137.666817 
L 138.49679 129.637273 
L 141.182134 129.637273 
L 143.867477 133.652045 
L 146.55282 145.696364 
L 149.238163 137.666817 
L 151.923506 131.644659 
L 154.60885 81.460002 
L 157.294193 17.223636 
L 159.979536 33.282734 
L 162.664879 145.696364 
L 165.350223 145.696364 
L 168.035566 129.637273 
L 170.720909 125.622501 
" clip-path="url(#p1db7db3481)" style="fill: none; stroke: #0c5da5; stroke-width: 1.5; stroke-linecap: square"/>
   </g>
   <g id="line2d_16">
    <path d="M 39.139091 116.234625 
L 41.824434 115.690893 
L 44.509777 116.202186 
L 47.195121 84.981629 
L 49.880464 123.213525 
L 52.565807 115.133367 
L 55.25115 118.094475 
L 57.936494 118.311619 
L 60.621837 108.915162 
L 63.30718 95.344801 
L 65.992523 111.259675 
L 68.677866 110.643713 
L 71.36321 110.659976 
L 74.048553 103.126897 
L 76.733896 103.574351 
L 79.419239 83.29569 
L 82.104583 100.943713 
L 84.789926 118.055215 
L 87.475269 130.054998 
L 90.160612 111.534992 
L 92.845955 100.116668 
L 95.531299 85.069785 
L 98.216642 104.850687 
L 100.901985 127.78616 
L 103.587328 115.249482 
L 106.272672 115.056328 
L 108.958015 111.399575 
L 111.643358 93.049112 
L 114.328701 120.216189 
L 117.014045 130.460842 
L 119.699388 107.434704 
L 122.384731 119.778524 
L 125.070074 115.220401 
L 127.755417 96.157753 
L 130.440761 113.415063 
L 133.126104 116.912369 
L 135.811447 115.952544 
L 138.49679 107.140995 
L 141.182134 108.187712 
L 143.867477 83.020241 
L 146.55282 107.047054 
L 149.238163 115.857294 
L 151.923506 128.376503 
L 154.60885 109.126237 
L 157.294193 106.841795 
L 159.979536 92.063594 
L 162.664879 113.955257 
L 165.350223 126.971468 
L 168.035566 126.09396 
L 170.720909 105.433132 
" clip-path="url(#p1db7db3481)" style="fill: none; stroke: #ff9500; stroke-width: 1.5; stroke-linecap: square"/>
   </g>
   <g id="line2d_17">
    <path d="M 39.139091 112.077002 
L 41.824434 112.880609 
L 44.509777 115.477854 
L 47.195121 103.802351 
L 49.880464 111.666589 
L 52.565807 120.824762 
L 55.25115 119.809423 
L 57.936494 125.713279 
L 60.621837 131.202762 
L 63.30718 104.860036 
L 65.992523 113.799593 
L 68.677866 121.068882 
L 71.36321 117.575523 
L 74.048553 120.300848 
L 76.733896 119.227508 
L 79.419239 116.213722 
L 82.104583 124.180266 
L 84.789926 128.921119 
L 87.475269 132.909623 
L 90.160612 129.580065 
L 92.845955 124.375188 
L 95.531299 106.3031 
L 98.216642 116.798624 
L 100.901985 119.545575 
L 103.587328 111.783239 
L 106.272672 123.312492 
L 108.958015 121.683747 
L 111.643358 109.040582 
L 114.328701 119.172582 
L 117.014045 127.095061 
L 119.699388 115.714937 
L 122.384731 125.411453 
L 125.070074 125.29954 
L 127.755417 107.017441 
L 130.440761 116.212634 
L 133.126104 119.353337 
L 135.811447 123.407284 
L 138.49679 121.717187 
L 141.182134 119.623005 
L 143.867477 110.15573 
L 146.55282 123.674031 
L 149.238163 125.001092 
L 151.923506 134.335539 
L 154.60885 126.064198 
L 157.294193 130.777281 
L 159.979536 111.256818 
L 162.664879 126.21534 
L 165.350223 123.64354 
L 168.035566 123.648346 
L 170.720909 122.288676 
" clip-path="url(#p1db7db3481)" style="fill: none; stroke: #00b945; stroke-width: 1.5; stroke-linecap: square"/>
   </g>
   <g id="patch_3">
    <path d="M 32.56 152.12 
L 32.56 10.8 
" style="fill: none; stroke: #000000; stroke-width: 0.8; stroke-linejoin: miter; stroke-linecap: square"/>
   </g>
   <g id="patch_4">
    <path d="M 177.3 152.12 
L 177.3 10.8 
" style="fill: none; stroke: #000000; stroke-width: 0.8; stroke-linejoin: miter; stroke-linecap: square"/>
   </g>
   <g id="patch_5">
    <path d="M 32.56 152.12 
L 177.3 152.12 
" style="fill: none; stroke: #000000; stroke-width: 0.8; stroke-linejoin: miter; stroke-linecap: square"/>
   </g>
   <g id="patch_6">
    <path d="M 32.56 10.8 
L 177.3 10.8 
" style="fill: none; stroke: #000000; stroke-width: 0.8; stroke-linejoin: miter; stroke-linecap: square"/>
   </g>
   <g id="legend_1">
    <g id="patch_7">
     <path d="M 84.25625 62.834375 
L 170.3 62.834375 
Q 172.3 62.834375 172.3 60.834375 
L 172.3 17.8 
Q 172.3 15.8 170.3 15.8 
L 84.25625 15.8 
Q 82.25625 15.8 82.25625 17.8 
L 82.25625 60.834375 
Q 82.25625 62.834375 84.25625 62.834375 
z
" style="fill: #ffffff; opacity: 0.8; stroke: #cccccc; stroke-linejoin: miter"/>
    </g>
    <g id="line2d_18">
     <path d="M 86.25625 23.898438 
L 96.25625 23.898438 
L 106.25625 23.898438 
" style="fill: none; stroke: #0c5da5; stroke-width: 1.5; stroke-linecap: square"/>
    </g>
    <g id="text_8">
     <!-- True Value -->
     <g transform="translate(114.25625 27.398438) scale(0.1 -0.1)">
      <defs>
       <path id="DejaVuSans-54" d="M -19 4666 
L 3928 4666 
L 3928 4134 
L 2272 4134 
L 2272 0 
L 1638 0 
L 1638 4134 
L -19 4134 
L -19 4666 
z
" transform="scale(0.015625)"/>
       <path id="DejaVuSans-72" d="M 2631 2963 
Q 2534 3019 2420 3045 
Q 2306 3072 2169 3072 
Q 1681 3072 1420 2755 
Q 1159 2438 1159 1844 
L 1159 0 
L 581 0 
L 581 3500 
L 1159 3500 
L 1159 2956 
Q 1341 3275 1631 3429 
Q 1922 3584 2338 3584 
Q 2397 3584 2469 3576 
Q 2541 3569 2628 3553 
L 2631 2963 
z
" transform="scale(0.015625)"/>
       <path id="DejaVuSans-75" d="M 544 1381 
L 544 3500 
L 1119 3500 
L 1119 1403 
Q 1119 906 1312 657 
Q 1506 409 1894 409 
Q 2359 409 2629 706 
Q 2900 1003 2900 1516 
L 2900 3500 
L 3475 3500 
L 3475 0 
L 2900 0 
L 2900 538 
Q 2691 219 2414 64 
Q 2138 -91 1772 -91 
Q 1169 -91 856 284 
Q 544 659 544 1381 
z
M 1991 3584 
L 1991 3584 
z
" transform="scale(0.015625)"/>
       <path id="DejaVuSans-65" d="M 3597 1894 
L 3597 1613 
L 953 1613 
Q 991 1019 1311 708 
Q 1631 397 2203 397 
Q 2534 397 2845 478 
Q 3156 559 3463 722 
L 3463 178 
Q 3153 47 2828 -22 
Q 2503 -91 2169 -91 
Q 1331 -91 842 396 
Q 353 884 353 1716 
Q 353 2575 817 3079 
Q 1281 3584 2069 3584 
Q 2775 3584 3186 3129 
Q 3597 2675 3597 1894 
z
M 3022 2063 
Q 3016 2534 2758 2815 
Q 2500 3097 2075 3097 
Q 1594 3097 1305 2825 
Q 1016 2553 972 2059 
L 3022 2063 
z
" transform="scale(0.015625)"/>
       <path id="DejaVuSans-20" transform="scale(0.015625)"/>
       <path id="DejaVuSans-56" d="M 1831 0 
L 50 4666 
L 709 4666 
L 2188 738 
L 3669 4666 
L 4325 4666 
L 2547 0 
L 1831 0 
z
" transform="scale(0.015625)"/>
       <path id="DejaVuSans-61" d="M 2194 1759 
Q 1497 1759 1228 1600 
Q 959 1441 959 1056 
Q 959 750 1161 570 
Q 1363 391 1709 391 
Q 2188 391 2477 730 
Q 2766 1069 2766 1631 
L 2766 1759 
L 2194 1759 
z
M 3341 1997 
L 3341 0 
L 2766 0 
L 2766 531 
Q 2569 213 2275 61 
Q 1981 -91 1556 -91 
Q 1019 -91 701 211 
Q 384 513 384 1019 
Q 384 1609 779 1909 
Q 1175 2209 1959 2209 
L 2766 2209 
L 2766 2266 
Q 2766 2663 2505 2880 
Q 2244 3097 1772 3097 
Q 1472 3097 1187 3025 
Q 903 2953 641 2809 
L 641 3341 
Q 956 3463 1253 3523 
Q 1550 3584 1831 3584 
Q 2591 3584 2966 3190 
Q 3341 2797 3341 1997 
z
" transform="scale(0.015625)"/>
       <path id="DejaVuSans-6c" d="M 603 4863 
L 1178 4863 
L 1178 0 
L 603 0 
L 603 4863 
z
" transform="scale(0.015625)"/>
      </defs>
      <use xlink:href="#DejaVuSans-54"/>
      <use xlink:href="#DejaVuSans-72" x="46.333984"/>
      <use xlink:href="#DejaVuSans-75" x="87.447266"/>
      <use xlink:href="#DejaVuSans-65" x="150.826172"/>
      <use xlink:href="#DejaVuSans-20" x="212.349609"/>
      <use xlink:href="#DejaVuSans-56" x="244.136719"/>
      <use xlink:href="#DejaVuSans-61" x="304.794922"/>
      <use xlink:href="#DejaVuSans-6c" x="366.074219"/>
      <use xlink:href="#DejaVuSans-75" x="393.857422"/>
      <use xlink:href="#DejaVuSans-65" x="457.236328"/>
     </g>
    </g>
    <g id="line2d_19">
     <path d="M 86.25625 38.576563 
L 96.25625 38.576563 
L 106.25625 38.576563 
" style="fill: none; stroke: #ff9500; stroke-width: 1.5; stroke-linecap: square"/>
    </g>
    <g id="text_9">
     <!-- MLP -->
     <g transform="translate(114.25625 42.076563) scale(0.1 -0.1)">
      <defs>
       <path id="DejaVuSans-4d" d="M 628 4666 
L 1569 4666 
L 2759 1491 
L 3956 4666 
L 4897 4666 
L 4897 0 
L 4281 0 
L 4281 4097 
L 3078 897 
L 2444 897 
L 1241 4097 
L 1241 0 
L 628 0 
L 628 4666 
z
" transform="scale(0.015625)"/>
       <path id="DejaVuSans-4c" d="M 628 4666 
L 1259 4666 
L 1259 531 
L 3531 531 
L 3531 0 
L 628 0 
L 628 4666 
z
" transform="scale(0.015625)"/>
       <path id="DejaVuSans-50" d="M 1259 4147 
L 1259 2394 
L 2053 2394 
Q 2494 2394 2734 2622 
Q 2975 2850 2975 3272 
Q 2975 3691 2734 3919 
Q 2494 4147 2053 4147 
L 1259 4147 
z
M 628 4666 
L 2053 4666 
Q 2838 4666 3239 4311 
Q 3641 3956 3641 3272 
Q 3641 2581 3239 2228 
Q 2838 1875 2053 1875 
L 1259 1875 
L 1259 0 
L 628 0 
L 628 4666 
z
" transform="scale(0.015625)"/>
      </defs>
      <use xlink:href="#DejaVuSans-4d"/>
      <use xlink:href="#DejaVuSans-4c" x="86.279297"/>
      <use xlink:href="#DejaVuSans-50" x="141.992188"/>
     </g>
    </g>
    <g id="line2d_20">
     <path d="M 86.25625 53.254688 
L 96.25625 53.254688 
L 106.25625 53.254688 
" style="fill: none; stroke: #00b945; stroke-width: 1.5; stroke-linecap: square"/>
    </g>
    <g id="text_10">
     <!-- Interpreter -->
     <g transform="translate(114.25625 56.754688) scale(0.1 -0.1)">
      <defs>
       <path id="DejaVuSans-49" d="M 628 4666 
L 1259 4666 
L 1259 0 
L 628 0 
L 628 4666 
z
" transform="scale(0.015625)"/>
       <path id="DejaVuSans-6e" d="M 3513 2113 
L 3513 0 
L 2938 0 
L 2938 2094 
Q 2938 2591 2744 2837 
Q 2550 3084 2163 3084 
Q 1697 3084 1428 2787 
Q 1159 2491 1159 1978 
L 1159 0 
L 581 0 
L 581 3500 
L 1159 3500 
L 1159 2956 
Q 1366 3272 1645 3428 
Q 1925 3584 2291 3584 
Q 2894 3584 3203 3211 
Q 3513 2838 3513 2113 
z
" transform="scale(0.015625)"/>
       <path id="DejaVuSans-74" d="M 1172 4494 
L 1172 3500 
L 2356 3500 
L 2356 3053 
L 1172 3053 
L 1172 1153 
Q 1172 725 1289 603 
Q 1406 481 1766 481 
L 2356 481 
L 2356 0 
L 1766 0 
Q 1100 0 847 248 
Q 594 497 594 1153 
L 594 3053 
L 172 3053 
L 172 3500 
L 594 3500 
L 594 4494 
L 1172 4494 
z
" transform="scale(0.015625)"/>
       <path id="DejaVuSans-70" d="M 1159 525 
L 1159 -1331 
L 581 -1331 
L 581 3500 
L 1159 3500 
L 1159 2969 
Q 1341 3281 1617 3432 
Q 1894 3584 2278 3584 
Q 2916 3584 3314 3078 
Q 3713 2572 3713 1747 
Q 3713 922 3314 415 
Q 2916 -91 2278 -91 
Q 1894 -91 1617 61 
Q 1341 213 1159 525 
z
M 3116 1747 
Q 3116 2381 2855 2742 
Q 2594 3103 2138 3103 
Q 1681 3103 1420 2742 
Q 1159 2381 1159 1747 
Q 1159 1113 1420 752 
Q 1681 391 2138 391 
Q 2594 391 2855 752 
Q 3116 1113 3116 1747 
z
" transform="scale(0.015625)"/>
      </defs>
      <use xlink:href="#DejaVuSans-49"/>
      <use xlink:href="#DejaVuSans-6e" x="29.492188"/>
      <use xlink:href="#DejaVuSans-74" x="92.871094"/>
      <use xlink:href="#DejaVuSans-65" x="132.080078"/>
      <use xlink:href="#DejaVuSans-72" x="193.603516"/>
      <use xlink:href="#DejaVuSans-70" x="234.716797"/>
      <use xlink:href="#DejaVuSans-72" x="298.193359"/>
      <use xlink:href="#DejaVuSans-65" x="337.056641"/>
      <use xlink:href="#DejaVuSans-74" x="398.580078"/>
      <use xlink:href="#DejaVuSans-65" x="437.789062"/>
      <use xlink:href="#DejaVuSans-72" x="499.3125"/>
     </g>
    </g>
   </g>
  </g>
  <g id="axes_2">
   <g id="patch_8">
    <path d="M 209.86 152.12 
L 354.6 152.12 
L 354.6 10.8 
L 209.86 10.8 
z
" style="fill: #ffffff"/>
   </g>
   <g id="matplotlib.axis_3">
    <g id="xtick_4">
     <g id="line2d_21">
      <path d="M 216.439091 152.12 
L 216.439091 10.8 
" clip-path="url(#pde2d4fc842)" style="fill: none; stroke: #b0b0b0; stroke-width: 0.8; stroke-linecap: square"/>
     </g>
     <g id="line2d_22">
      <g>
       <use xlink:href="#m184fb94e13" x="216.439091" y="152.12" style="stroke: #000000; stroke-width: 0.8"/>
      </g>
     </g>
     <g id="text_11">
      <!-- 0 -->
      <g transform="translate(213.257841 166.718437) scale(0.1 -0.1)">
       <use xlink:href="#DejaVuSans-30"/>
      </g>
     </g>
    </g>
    <g id="xtick_5">
     <g id="line2d_23">
      <path d="M 270.145955 152.12 
L 270.145955 10.8 
" clip-path="url(#pde2d4fc842)" style="fill: none; stroke: #b0b0b0; stroke-width: 0.8; stroke-linecap: square"/>
     </g>
     <g id="line2d_24">
      <g>
       <use xlink:href="#m184fb94e13" x="270.145955" y="152.12" style="stroke: #000000; stroke-width: 0.8"/>
      </g>
     </g>
     <g id="text_12">
      <!-- 20 -->
      <g transform="translate(263.783455 166.718437) scale(0.1 -0.1)">
       <use xlink:href="#DejaVuSans-32"/>
       <use xlink:href="#DejaVuSans-30" x="63.623047"/>
      </g>
     </g>
    </g>
    <g id="xtick_6">
     <g id="line2d_25">
      <path d="M 323.85282 152.12 
L 323.85282 10.8 
" clip-path="url(#pde2d4fc842)" style="fill: none; stroke: #b0b0b0; stroke-width: 0.8; stroke-linecap: square"/>
     </g>
     <g id="line2d_26">
      <g>
       <use xlink:href="#m184fb94e13" x="323.85282" y="152.12" style="stroke: #000000; stroke-width: 0.8"/>
      </g>
     </g>
     <g id="text_13">
      <!-- 40 -->
      <g transform="translate(317.49032 166.718437) scale(0.1 -0.1)">
       <use xlink:href="#DejaVuSans-34"/>
       <use xlink:href="#DejaVuSans-30" x="63.623047"/>
      </g>
     </g>
    </g>
   </g>
   <g id="matplotlib.axis_4">
    <g id="ytick_5">
     <g id="line2d_27">
      <path d="M 209.86 139.904452 
L 354.6 139.904452 
" clip-path="url(#pde2d4fc842)" style="fill: none; stroke: #b0b0b0; stroke-width: 0.8; stroke-linecap: square"/>
     </g>
     <g id="line2d_28">
      <g>
       <use xlink:href="#m63242f0fa5" x="209.86" y="139.904452" style="stroke: #000000; stroke-width: 0.8"/>
      </g>
     </g>
     <g id="text_14">
      <!-- −1 -->
      <g transform="translate(188.117813 143.703671) scale(0.1 -0.1)">
       <use xlink:href="#DejaVuSans-2212"/>
       <use xlink:href="#DejaVuSans-31" x="83.789062"/>
      </g>
     </g>
    </g>
    <g id="ytick_6">
     <g id="line2d_29">
      <path d="M 209.86 101.48823 
L 354.6 101.48823 
" clip-path="url(#pde2d4fc842)" style="fill: none; stroke: #b0b0b0; stroke-width: 0.8; stroke-linecap: square"/>
     </g>
     <g id="line2d_30">
      <g>
       <use xlink:href="#m63242f0fa5" x="209.86" y="101.48823" style="stroke: #000000; stroke-width: 0.8"/>
      </g>
     </g>
     <g id="text_15">
      <!-- 0 -->
      <g transform="translate(196.4975 105.287449) scale(0.1 -0.1)">
       <use xlink:href="#DejaVuSans-30"/>
      </g>
     </g>
    </g>
    <g id="ytick_7">
     <g id="line2d_31">
      <path d="M 209.86 63.072007 
L 354.6 63.072007 
" clip-path="url(#pde2d4fc842)" style="fill: none; stroke: #b0b0b0; stroke-width: 0.8; stroke-linecap: square"/>
     </g>
     <g id="line2d_32">
      <g>
       <use xlink:href="#m63242f0fa5" x="209.86" y="63.072007" style="stroke: #000000; stroke-width: 0.8"/>
      </g>
     </g>
     <g id="text_16">
      <!-- 1 -->
      <g transform="translate(196.4975 66.871226) scale(0.1 -0.1)">
       <use xlink:href="#DejaVuSans-31"/>
      </g>
     </g>
    </g>
    <g id="ytick_8">
     <g id="line2d_33">
      <path d="M 209.86 24.655785 
L 354.6 24.655785 
" clip-path="url(#pde2d4fc842)" style="fill: none; stroke: #b0b0b0; stroke-width: 0.8; stroke-linecap: square"/>
     </g>
     <g id="line2d_34">
      <g>
       <use xlink:href="#m63242f0fa5" x="209.86" y="24.655785" style="stroke: #000000; stroke-width: 0.8"/>
      </g>
     </g>
     <g id="text_17">
      <!-- 2 -->
      <g transform="translate(196.4975 28.455004) scale(0.1 -0.1)">
       <use xlink:href="#DejaVuSans-32"/>
      </g>
     </g>
    </g>
   </g>
   <g id="line2d_35">
    <path d="M 216.439091 121.256718 
L 219.124434 125.2679 
L 221.809777 136.470984 
L 224.495121 131.395553 
L 227.180464 132.715333 
L 229.865807 128.685581 
L 232.55115 126.804698 
L 235.236494 132.725415 
L 237.921837 141.427439 
L 240.60718 135.643036 
L 243.292523 136.970077 
L 245.977866 131.610729 
L 248.66321 130.016814 
L 251.348553 135.146924 
L 254.033896 141.700629 
L 256.719239 136.402739 
L 259.404583 137.58953 
L 262.089926 131.923175 
L 264.775269 131.092988 
L 267.460612 135.400255 
L 270.145955 141.342094 
L 272.831299 136.857492 
L 275.516642 138.670061 
L 278.201985 133.527732 
L 280.887328 132.288757 
L 283.572672 136.051465 
L 286.258015 141.095118 
L 288.943358 137.38546 
L 291.628701 139.396244 
L 294.314045 135.582272 
L 296.999388 135.224356 
L 299.684731 138.314813 
L 302.370074 141.966129 
L 305.055417 138.65589 
L 307.740761 140.79876 
L 310.426104 137.877924 
L 313.111447 137.723881 
L 315.79679 140.586204 
L 318.482134 142.408058 
L 321.167477 138.676956 
L 323.85282 140.048828 
L 326.538163 136.886188 
L 329.223506 137.371375 
L 331.90885 141.462885 
L 334.594193 144.073735 
L 337.279536 138.899912 
L 339.964879 140.283302 
L 342.650223 136.986009 
L 345.335566 138.787046 
L 348.020909 141.188088 
" clip-path="url(#pde2d4fc842)" style="fill: none; stroke: #f08080; stroke-width: 1.5; stroke-linecap: square"/>
   </g>
   <g id="line2d_36">
    <path d="M 216.439091 131.644659 
L 219.124434 123.615114 
L 221.809777 125.622501 
L 224.495121 133.652045 
L 227.180464 145.696364 
L 229.865807 137.666817 
L 232.55115 137.666817 
L 235.236494 131.644659 
L 237.921837 131.644659 
L 240.60718 67.4083 
L 243.292523 75.437844 
L 245.977866 145.696364 
L 248.66321 129.637273 
L 251.348553 125.622501 
L 254.033896 123.615114 
L 256.719239 121.607728 
L 259.404583 141.681587 
L 262.089926 141.681587 
L 264.775269 141.681587 
L 267.460612 133.652045 
L 270.145955 131.644659 
L 272.831299 137.666817 
L 275.516642 145.696364 
L 278.201985 145.696364 
L 280.887328 137.666817 
L 283.572672 123.615114 
L 286.258015 129.637273 
L 288.943358 137.666817 
L 291.628701 145.696364 
L 294.314045 141.681587 
L 296.999388 141.681587 
L 299.684731 129.637273 
L 302.370074 127.629887 
L 305.055417 141.681587 
L 307.740761 145.696364 
L 310.426104 137.666817 
L 313.111447 137.666817 
L 315.79679 129.637273 
L 318.482134 129.637273 
L 321.167477 133.652045 
L 323.85282 145.696364 
L 326.538163 137.666817 
L 329.223506 131.644659 
L 331.90885 81.460002 
L 334.594193 17.223636 
L 337.279536 33.282734 
L 339.964879 145.696364 
L 342.650223 145.696364 
L 345.335566 129.637273 
L 348.020909 125.622501 
" clip-path="url(#pde2d4fc842)" style="fill: none; stroke: #0c5da5; stroke-width: 1.5; stroke-linecap: square"/>
   </g>
   <g id="patch_9">
    <path d="M 209.86 152.12 
L 209.86 10.8 
" style="fill: none; stroke: #000000; stroke-width: 0.8; stroke-linejoin: miter; stroke-linecap: square"/>
   </g>
   <g id="patch_10">
    <path d="M 354.6 152.12 
L 354.6 10.8 
" style="fill: none; stroke: #000000; stroke-width: 0.8; stroke-linejoin: miter; stroke-linecap: square"/>
   </g>
   <g id="patch_11">
    <path d="M 209.86 152.12 
L 354.6 152.12 
" style="fill: none; stroke: #000000; stroke-width: 0.8; stroke-linejoin: miter; stroke-linecap: square"/>
   </g>
   <g id="patch_12">
    <path d="M 209.86 10.8 
L 354.6 10.8 
" style="fill: none; stroke: #000000; stroke-width: 0.8; stroke-linejoin: miter; stroke-linecap: square"/>
   </g>
   <g id="legend_2">
    <g id="patch_13">
     <path d="M 245.273438 48.15625 
L 347.6 48.15625 
Q 349.6 48.15625 349.6 46.15625 
L 349.6 17.8 
Q 349.6 15.8 347.6 15.8 
L 245.273438 15.8 
Q 243.273438 15.8 243.273438 17.8 
L 243.273438 46.15625 
Q 243.273438 48.15625 245.273438 48.15625 
z
" style="fill: #ffffff; opacity: 0.8; stroke: #cccccc; stroke-linejoin: miter"/>
    </g>
    <g id="line2d_37">
     <path d="M 247.273438 23.898438 
L 257.273438 23.898438 
L 267.273438 23.898438 
" style="fill: none; stroke: #f08080; stroke-width: 1.5; stroke-linecap: square"/>
    </g>
    <g id="text_18">
     <!-- Interpreter - E -->
     <g transform="translate(275.273438 27.398438) scale(0.1 -0.1)">
      <defs>
       <path id="DejaVuSans-2d" d="M 313 2009 
L 1997 2009 
L 1997 1497 
L 313 1497 
L 313 2009 
z
" transform="scale(0.015625)"/>
       <path id="DejaVuSans-45" d="M 628 4666 
L 3578 4666 
L 3578 4134 
L 1259 4134 
L 1259 2753 
L 3481 2753 
L 3481 2222 
L 1259 2222 
L 1259 531 
L 3634 531 
L 3634 0 
L 628 0 
L 628 4666 
z
" transform="scale(0.015625)"/>
      </defs>
      <use xlink:href="#DejaVuSans-49"/>
      <use xlink:href="#DejaVuSans-6e" x="29.492188"/>
      <use xlink:href="#DejaVuSans-74" x="92.871094"/>
      <use xlink:href="#DejaVuSans-65" x="132.080078"/>
      <use xlink:href="#DejaVuSans-72" x="193.603516"/>
      <use xlink:href="#DejaVuSans-70" x="234.716797"/>
      <use xlink:href="#DejaVuSans-72" x="298.193359"/>
      <use xlink:href="#DejaVuSans-65" x="337.056641"/>
      <use xlink:href="#DejaVuSans-74" x="398.580078"/>
      <use xlink:href="#DejaVuSans-65" x="437.789062"/>
      <use xlink:href="#DejaVuSans-72" x="499.3125"/>
      <use xlink:href="#DejaVuSans-20" x="540.425781"/>
      <use xlink:href="#DejaVuSans-2d" x="572.212891"/>
      <use xlink:href="#DejaVuSans-20" x="608.296875"/>
      <use xlink:href="#DejaVuSans-45" x="640.083984"/>
     </g>
    </g>
    <g id="line2d_38">
     <path d="M 247.273438 38.576562 
L 257.273438 38.576562 
L 267.273438 38.576562 
" style="fill: none; stroke: #0c5da5; stroke-width: 1.5; stroke-linecap: square"/>
    </g>
    <g id="text_19">
     <!-- True -->
     <g transform="translate(275.273438 42.076562) scale(0.1 -0.1)">
      <use xlink:href="#DejaVuSans-54"/>
      <use xlink:href="#DejaVuSans-72" x="46.333984"/>
      <use xlink:href="#DejaVuSans-75" x="87.447266"/>
      <use xlink:href="#DejaVuSans-65" x="150.826172"/>
     </g>
    </g>
   </g>
  </g>
  <g id="axes_3">
   <g id="patch_14">
    <path d="M 387.16 152.12 
L 531.9 152.12 
L 531.9 10.8 
L 387.16 10.8 
z
" style="fill: #ffffff"/>
   </g>
   <g id="matplotlib.axis_5">
    <g id="xtick_7">
     <g id="line2d_39">
      <path d="M 393.739091 152.12 
L 393.739091 10.8 
" clip-path="url(#p8d84e7f898)" style="fill: none; stroke: #b0b0b0; stroke-width: 0.8; stroke-linecap: square"/>
     </g>
     <g id="line2d_40">
      <g>
       <use xlink:href="#m184fb94e13" x="393.739091" y="152.12" style="stroke: #000000; stroke-width: 0.8"/>
      </g>
     </g>
     <g id="text_20">
      <!-- 0 -->
      <g transform="translate(390.557841 166.718437) scale(0.1 -0.1)">
       <use xlink:href="#DejaVuSans-30"/>
      </g>
     </g>
    </g>
    <g id="xtick_8">
     <g id="line2d_41">
      <path d="M 447.445955 152.12 
L 447.445955 10.8 
" clip-path="url(#p8d84e7f898)" style="fill: none; stroke: #b0b0b0; stroke-width: 0.8; stroke-linecap: square"/>
     </g>
     <g id="line2d_42">
      <g>
       <use xlink:href="#m184fb94e13" x="447.445955" y="152.12" style="stroke: #000000; stroke-width: 0.8"/>
      </g>
     </g>
     <g id="text_21">
      <!-- 20 -->
      <g transform="translate(441.083455 166.718437) scale(0.1 -0.1)">
       <use xlink:href="#DejaVuSans-32"/>
       <use xlink:href="#DejaVuSans-30" x="63.623047"/>
      </g>
     </g>
    </g>
    <g id="xtick_9">
     <g id="line2d_43">
      <path d="M 501.15282 152.12 
L 501.15282 10.8 
" clip-path="url(#p8d84e7f898)" style="fill: none; stroke: #b0b0b0; stroke-width: 0.8; stroke-linecap: square"/>
     </g>
     <g id="line2d_44">
      <g>
       <use xlink:href="#m184fb94e13" x="501.15282" y="152.12" style="stroke: #000000; stroke-width: 0.8"/>
      </g>
     </g>
     <g id="text_22">
      <!-- 40 -->
      <g transform="translate(494.79032 166.718437) scale(0.1 -0.1)">
       <use xlink:href="#DejaVuSans-34"/>
       <use xlink:href="#DejaVuSans-30" x="63.623047"/>
      </g>
     </g>
    </g>
   </g>
   <g id="matplotlib.axis_6">
    <g id="ytick_9">
     <g id="line2d_45">
      <path d="M 387.16 139.904452 
L 531.9 139.904452 
" clip-path="url(#p8d84e7f898)" style="fill: none; stroke: #b0b0b0; stroke-width: 0.8; stroke-linecap: square"/>
     </g>
     <g id="line2d_46">
      <g>
       <use xlink:href="#m63242f0fa5" x="387.16" y="139.904452" style="stroke: #000000; stroke-width: 0.8"/>
      </g>
     </g>
     <g id="text_23">
      <!-- −1 -->
      <g transform="translate(365.417813 143.703671) scale(0.1 -0.1)">
       <use xlink:href="#DejaVuSans-2212"/>
       <use xlink:href="#DejaVuSans-31" x="83.789062"/>
      </g>
     </g>
    </g>
    <g id="ytick_10">
     <g id="line2d_47">
      <path d="M 387.16 101.48823 
L 531.9 101.48823 
" clip-path="url(#p8d84e7f898)" style="fill: none; stroke: #b0b0b0; stroke-width: 0.8; stroke-linecap: square"/>
     </g>
     <g id="line2d_48">
      <g>
       <use xlink:href="#m63242f0fa5" x="387.16" y="101.48823" style="stroke: #000000; stroke-width: 0.8"/>
      </g>
     </g>
     <g id="text_24">
      <!-- 0 -->
      <g transform="translate(373.7975 105.287449) scale(0.1 -0.1)">
       <use xlink:href="#DejaVuSans-30"/>
      </g>
     </g>
    </g>
    <g id="ytick_11">
     <g id="line2d_49">
      <path d="M 387.16 63.072007 
L 531.9 63.072007 
" clip-path="url(#p8d84e7f898)" style="fill: none; stroke: #b0b0b0; stroke-width: 0.8; stroke-linecap: square"/>
     </g>
     <g id="line2d_50">
      <g>
       <use xlink:href="#m63242f0fa5" x="387.16" y="63.072007" style="stroke: #000000; stroke-width: 0.8"/>
      </g>
     </g>
     <g id="text_25">
      <!-- 1 -->
      <g transform="translate(373.7975 66.871226) scale(0.1 -0.1)">
       <use xlink:href="#DejaVuSans-31"/>
      </g>
     </g>
    </g>
    <g id="ytick_12">
     <g id="line2d_51">
      <path d="M 387.16 24.655785 
L 531.9 24.655785 
" clip-path="url(#p8d84e7f898)" style="fill: none; stroke: #b0b0b0; stroke-width: 0.8; stroke-linecap: square"/>
     </g>
     <g id="line2d_52">
      <g>
       <use xlink:href="#m63242f0fa5" x="387.16" y="24.655785" style="stroke: #000000; stroke-width: 0.8"/>
      </g>
     </g>
     <g id="text_26">
      <!-- 2 -->
      <g transform="translate(373.7975 28.455004) scale(0.1 -0.1)">
       <use xlink:href="#DejaVuSans-32"/>
      </g>
     </g>
    </g>
   </g>
   <g id="line2d_53">
    <path d="M 393.739091 92.308514 
L 396.424434 89.100939 
L 399.109777 80.495101 
L 401.795121 73.895028 
L 404.480464 80.439486 
L 407.165807 93.627411 
L 409.85115 94.492954 
L 412.536494 94.476094 
L 415.221837 91.263553 
L 417.90718 70.705231 
L 420.592523 78.317746 
L 423.277866 90.946384 
L 425.96321 89.046939 
L 428.648553 86.642154 
L 431.333896 79.015109 
L 434.019239 81.299214 
L 436.704583 88.078966 
L 439.389926 98.486175 
L 442.075269 103.304865 
L 444.760612 95.66804 
L 447.445955 84.521324 
L 450.131299 70.933839 
L 452.816642 79.616792 
L 455.501985 87.506073 
L 458.187328 80.982713 
L 460.872672 88.749257 
L 463.558015 82.076859 
L 466.243358 73.143353 
L 468.928701 81.264567 
L 471.614045 93.001019 
L 474.299388 81.97881 
L 476.984731 88.584871 
L 479.670074 84.821641 
L 482.355417 69.849781 
L 485.040761 76.902105 
L 487.726104 82.963644 
L 490.411447 87.171634 
L 493.09679 82.619213 
L 495.782134 78.703176 
L 498.467477 72.967003 
L 501.15282 85.113433 
L 503.838163 89.603134 
L 506.523506 98.452394 
L 509.20885 86.089543 
L 511.894193 88.191776 
L 514.579536 73.845136 
L 517.264879 87.420268 
L 519.950223 88.145761 
L 522.635566 86.34953 
L 525.320909 82.588818 
" clip-path="url(#p8d84e7f898)" style="fill: none; stroke: #ffd700; stroke-width: 1.5; stroke-linecap: square"/>
   </g>
   <g id="line2d_54">
    <path d="M 393.739091 131.644659 
L 396.424434 123.615114 
L 399.109777 125.622501 
L 401.795121 133.652045 
L 404.480464 145.696364 
L 407.165807 137.666817 
L 409.85115 137.666817 
L 412.536494 131.644659 
L 415.221837 131.644659 
L 417.90718 67.4083 
L 420.592523 75.437844 
L 423.277866 145.696364 
L 425.96321 129.637273 
L 428.648553 125.622501 
L 431.333896 123.615114 
L 434.019239 121.607728 
L 436.704583 141.681587 
L 439.389926 141.681587 
L 442.075269 141.681587 
L 444.760612 133.652045 
L 447.445955 131.644659 
L 450.131299 137.666817 
L 452.816642 145.696364 
L 455.501985 145.696364 
L 458.187328 137.666817 
L 460.872672 123.615114 
L 463.558015 129.637273 
L 466.243358 137.666817 
L 468.928701 145.696364 
L 471.614045 141.681587 
L 474.299388 141.681587 
L 476.984731 129.637273 
L 479.670074 127.629887 
L 482.355417 141.681587 
L 485.040761 145.696364 
L 487.726104 137.666817 
L 490.411447 137.666817 
L 493.09679 129.637273 
L 495.782134 129.637273 
L 498.467477 133.652045 
L 501.15282 145.696364 
L 503.838163 137.666817 
L 506.523506 131.644659 
L 509.20885 81.460002 
L 511.894193 17.223636 
L 514.579536 33.282734 
L 517.264879 145.696364 
L 519.950223 145.696364 
L 522.635566 129.637273 
L 525.320909 125.622501 
" clip-path="url(#p8d84e7f898)" style="fill: none; stroke: #0c5da5; stroke-width: 1.5; stroke-linecap: square"/>
   </g>
   <g id="patch_15">
    <path d="M 387.16 152.12 
L 387.16 10.8 
" style="fill: none; stroke: #000000; stroke-width: 0.8; stroke-linejoin: miter; stroke-linecap: square"/>
   </g>
   <g id="patch_16">
    <path d="M 531.9 152.12 
L 531.9 10.8 
" style="fill: none; stroke: #000000; stroke-width: 0.8; stroke-linejoin: miter; stroke-linecap: square"/>
   </g>
   <g id="patch_17">
    <path d="M 387.16 152.12 
L 531.9 152.12 
" style="fill: none; stroke: #000000; stroke-width: 0.8; stroke-linejoin: miter; stroke-linecap: square"/>
   </g>
   <g id="patch_18">
    <path d="M 387.16 10.8 
L 531.9 10.8 
" style="fill: none; stroke: #000000; stroke-width: 0.8; stroke-linejoin: miter; stroke-linecap: square"/>
   </g>
   <g id="legend_3">
    <g id="patch_19">
     <path d="M 450.66875 48.15625 
L 524.9 48.15625 
Q 526.9 48.15625 526.9 46.15625 
L 526.9 17.8 
Q 526.9 15.8 524.9 15.8 
L 450.66875 15.8 
Q 448.66875 15.8 448.66875 17.8 
L 448.66875 46.15625 
Q 448.66875 48.15625 450.66875 48.15625 
z
" style="fill: #ffffff; opacity: 0.8; stroke: #cccccc; stroke-linejoin: miter"/>
    </g>
    <g id="line2d_55">
     <path d="M 452.66875 23.898438 
L 462.66875 23.898438 
L 472.66875 23.898438 
" style="fill: none; stroke: #ffd700; stroke-width: 1.5; stroke-linecap: square"/>
    </g>
    <g id="text_27">
     <!-- Residual -->
     <g transform="translate(480.66875 27.398438) scale(0.1 -0.1)">
      <defs>
       <path id="DejaVuSans-52" d="M 2841 2188 
Q 3044 2119 3236 1894 
Q 3428 1669 3622 1275 
L 4263 0 
L 3584 0 
L 2988 1197 
Q 2756 1666 2539 1819 
Q 2322 1972 1947 1972 
L 1259 1972 
L 1259 0 
L 628 0 
L 628 4666 
L 2053 4666 
Q 2853 4666 3247 4331 
Q 3641 3997 3641 3322 
Q 3641 2881 3436 2590 
Q 3231 2300 2841 2188 
z
M 1259 4147 
L 1259 2491 
L 2053 2491 
Q 2509 2491 2742 2702 
Q 2975 2913 2975 3322 
Q 2975 3731 2742 3939 
Q 2509 4147 2053 4147 
L 1259 4147 
z
" transform="scale(0.015625)"/>
       <path id="DejaVuSans-73" d="M 2834 3397 
L 2834 2853 
Q 2591 2978 2328 3040 
Q 2066 3103 1784 3103 
Q 1356 3103 1142 2972 
Q 928 2841 928 2578 
Q 928 2378 1081 2264 
Q 1234 2150 1697 2047 
L 1894 2003 
Q 2506 1872 2764 1633 
Q 3022 1394 3022 966 
Q 3022 478 2636 193 
Q 2250 -91 1575 -91 
Q 1294 -91 989 -36 
Q 684 19 347 128 
L 347 722 
Q 666 556 975 473 
Q 1284 391 1588 391 
Q 1994 391 2212 530 
Q 2431 669 2431 922 
Q 2431 1156 2273 1281 
Q 2116 1406 1581 1522 
L 1381 1569 
Q 847 1681 609 1914 
Q 372 2147 372 2553 
Q 372 3047 722 3315 
Q 1072 3584 1716 3584 
Q 2034 3584 2315 3537 
Q 2597 3491 2834 3397 
z
" transform="scale(0.015625)"/>
       <path id="DejaVuSans-69" d="M 603 3500 
L 1178 3500 
L 1178 0 
L 603 0 
L 603 3500 
z
M 603 4863 
L 1178 4863 
L 1178 4134 
L 603 4134 
L 603 4863 
z
" transform="scale(0.015625)"/>
       <path id="DejaVuSans-64" d="M 2906 2969 
L 2906 4863 
L 3481 4863 
L 3481 0 
L 2906 0 
L 2906 525 
Q 2725 213 2448 61 
Q 2172 -91 1784 -91 
Q 1150 -91 751 415 
Q 353 922 353 1747 
Q 353 2572 751 3078 
Q 1150 3584 1784 3584 
Q 2172 3584 2448 3432 
Q 2725 3281 2906 2969 
z
M 947 1747 
Q 947 1113 1208 752 
Q 1469 391 1925 391 
Q 2381 391 2643 752 
Q 2906 1113 2906 1747 
Q 2906 2381 2643 2742 
Q 2381 3103 1925 3103 
Q 1469 3103 1208 2742 
Q 947 2381 947 1747 
z
" transform="scale(0.015625)"/>
      </defs>
      <use xlink:href="#DejaVuSans-52"/>
      <use xlink:href="#DejaVuSans-65" x="64.982422"/>
      <use xlink:href="#DejaVuSans-73" x="126.505859"/>
      <use xlink:href="#DejaVuSans-69" x="178.605469"/>
      <use xlink:href="#DejaVuSans-64" x="206.388672"/>
      <use xlink:href="#DejaVuSans-75" x="269.865234"/>
      <use xlink:href="#DejaVuSans-61" x="333.244141"/>
      <use xlink:href="#DejaVuSans-6c" x="394.523438"/>
     </g>
    </g>
    <g id="line2d_56">
     <path d="M 452.66875 38.576562 
L 462.66875 38.576562 
L 472.66875 38.576562 
" style="fill: none; stroke: #0c5da5; stroke-width: 1.5; stroke-linecap: square"/>
    </g>
    <g id="text_28">
     <!-- True -->
     <g transform="translate(480.66875 42.076562) scale(0.1 -0.1)">
      <use xlink:href="#DejaVuSans-54"/>
      <use xlink:href="#DejaVuSans-72" x="46.333984"/>
      <use xlink:href="#DejaVuSans-75" x="87.447266"/>
      <use xlink:href="#DejaVuSans-65" x="150.826172"/>
     </g>
    </g>
   </g>
  </g>
  <g id="axes_4">
   <g id="patch_20">
    <path d="M 564.46 152.12 
L 709.2 152.12 
L 709.2 10.8 
L 564.46 10.8 
z
" style="fill: #ffffff"/>
   </g>
   <g id="matplotlib.axis_7">
    <g id="xtick_10">
     <g id="line2d_57">
      <path d="M 571.039091 152.12 
L 571.039091 10.8 
" clip-path="url(#p29159aff08)" style="fill: none; stroke: #b0b0b0; stroke-width: 0.8; stroke-linecap: square"/>
     </g>
     <g id="line2d_58">
      <g>
       <use xlink:href="#m184fb94e13" x="571.039091" y="152.12" style="stroke: #000000; stroke-width: 0.8"/>
      </g>
     </g>
     <g id="text_29">
      <!-- 0 -->
      <g transform="translate(567.857841 166.718437) scale(0.1 -0.1)">
       <use xlink:href="#DejaVuSans-30"/>
      </g>
     </g>
    </g>
    <g id="xtick_11">
     <g id="line2d_59">
      <path d="M 624.745955 152.12 
L 624.745955 10.8 
" clip-path="url(#p29159aff08)" style="fill: none; stroke: #b0b0b0; stroke-width: 0.8; stroke-linecap: square"/>
     </g>
     <g id="line2d_60">
      <g>
       <use xlink:href="#m184fb94e13" x="624.745955" y="152.12" style="stroke: #000000; stroke-width: 0.8"/>
      </g>
     </g>
     <g id="text_30">
      <!-- 20 -->
      <g transform="translate(618.383455 166.718437) scale(0.1 -0.1)">
       <use xlink:href="#DejaVuSans-32"/>
       <use xlink:href="#DejaVuSans-30" x="63.623047"/>
      </g>
     </g>
    </g>
    <g id="xtick_12">
     <g id="line2d_61">
      <path d="M 678.45282 152.12 
L 678.45282 10.8 
" clip-path="url(#p29159aff08)" style="fill: none; stroke: #b0b0b0; stroke-width: 0.8; stroke-linecap: square"/>
     </g>
     <g id="line2d_62">
      <g>
       <use xlink:href="#m184fb94e13" x="678.45282" y="152.12" style="stroke: #000000; stroke-width: 0.8"/>
      </g>
     </g>
     <g id="text_31">
      <!-- 40 -->
      <g transform="translate(672.09032 166.718437) scale(0.1 -0.1)">
       <use xlink:href="#DejaVuSans-34"/>
       <use xlink:href="#DejaVuSans-30" x="63.623047"/>
      </g>
     </g>
    </g>
   </g>
   <g id="matplotlib.axis_8">
    <g id="ytick_13">
     <g id="line2d_63">
      <path d="M 564.46 139.904452 
L 709.2 139.904452 
" clip-path="url(#p29159aff08)" style="fill: none; stroke: #b0b0b0; stroke-width: 0.8; stroke-linecap: square"/>
     </g>
     <g id="line2d_64">
      <g>
       <use xlink:href="#m63242f0fa5" x="564.46" y="139.904452" style="stroke: #000000; stroke-width: 0.8"/>
      </g>
     </g>
     <g id="text_32">
      <!-- −1 -->
      <g transform="translate(542.717813 143.703671) scale(0.1 -0.1)">
       <use xlink:href="#DejaVuSans-2212"/>
       <use xlink:href="#DejaVuSans-31" x="83.789062"/>
      </g>
     </g>
    </g>
    <g id="ytick_14">
     <g id="line2d_65">
      <path d="M 564.46 101.48823 
L 709.2 101.48823 
" clip-path="url(#p29159aff08)" style="fill: none; stroke: #b0b0b0; stroke-width: 0.8; stroke-linecap: square"/>
     </g>
     <g id="line2d_66">
      <g>
       <use xlink:href="#m63242f0fa5" x="564.46" y="101.48823" style="stroke: #000000; stroke-width: 0.8"/>
      </g>
     </g>
     <g id="text_33">
      <!-- 0 -->
      <g transform="translate(551.0975 105.287449) scale(0.1 -0.1)">
       <use xlink:href="#DejaVuSans-30"/>
      </g>
     </g>
    </g>
    <g id="ytick_15">
     <g id="line2d_67">
      <path d="M 564.46 63.072007 
L 709.2 63.072007 
" clip-path="url(#p29159aff08)" style="fill: none; stroke: #b0b0b0; stroke-width: 0.8; stroke-linecap: square"/>
     </g>
     <g id="line2d_68">
      <g>
       <use xlink:href="#m63242f0fa5" x="564.46" y="63.072007" style="stroke: #000000; stroke-width: 0.8"/>
      </g>
     </g>
     <g id="text_34">
      <!-- 1 -->
      <g transform="translate(551.0975 66.871226) scale(0.1 -0.1)">
       <use xlink:href="#DejaVuSans-31"/>
      </g>
     </g>
    </g>
    <g id="ytick_16">
     <g id="line2d_69">
      <path d="M 564.46 24.655785 
L 709.2 24.655785 
" clip-path="url(#p29159aff08)" style="fill: none; stroke: #b0b0b0; stroke-width: 0.8; stroke-linecap: square"/>
     </g>
     <g id="line2d_70">
      <g>
       <use xlink:href="#m63242f0fa5" x="564.46" y="24.655785" style="stroke: #000000; stroke-width: 0.8"/>
      </g>
     </g>
     <g id="text_35">
      <!-- 2 -->
      <g transform="translate(551.0975 28.455004) scale(0.1 -0.1)">
       <use xlink:href="#DejaVuSans-32"/>
      </g>
     </g>
    </g>
   </g>
   <g id="line2d_71">
    <path d="M 571.039091 124.339465 
L 573.724434 126.112084 
L 576.409777 126.045706 
L 579.095121 108.806523 
L 581.780464 117.120916 
L 584.465807 119.449426 
L 587.15115 125.425568 
L 589.836494 126.302807 
L 592.521837 125.06053 
L 595.20718 114.165703 
L 597.892523 119.177745 
L 600.577866 118.659091 
L 603.26321 126.680077 
L 605.948553 125.426554 
L 608.633896 124.12131 
L 611.319239 102.115392 
L 614.004583 111.65232 
L 616.689926 114.71888 
L 619.375269 124.908548 
L 622.060612 124.851951 
L 624.745955 121.320285 
L 627.431299 99.882426 
L 630.116642 111.97937 
L 632.801985 114.885876 
L 635.487328 125.993984 
L 638.172672 126.03722 
L 640.858015 119.807757 
L 643.543358 94.860983 
L 646.228701 117.626421 
L 648.914045 120.715163 
L 651.599388 129.123333 
L 654.284731 127.287465 
L 656.970074 121.57719 
L 659.655417 97.713529 
L 662.340761 122.385578 
L 665.026104 126.347957 
L 667.711447 132.946505 
L 670.39679 127.167664 
L 673.082134 121.900848 
L 675.767477 104.525765 
L 678.45282 125.965801 
L 681.138163 125.287858 
L 683.823506 130.419672 
L 686.50885 121.143461 
L 689.194193 120.136111 
L 691.879536 102.333169 
L 694.564879 126.327667 
L 697.250223 122.357569 
L 699.935566 129.341689 
L 702.620909 124.306742 
" clip-path="url(#p29159aff08)" style="fill: none; stroke: #ff6b35; stroke-width: 1.5; stroke-linecap: square"/>
   </g>
   <g id="line2d_72">
    <path d="M 571.039091 131.644659 
L 573.724434 123.615114 
L 576.409777 125.622501 
L 579.095121 133.652045 
L 581.780464 145.696364 
L 584.465807 137.666817 
L 587.15115 137.666817 
L 589.836494 131.644659 
L 592.521837 131.644659 
L 595.20718 67.4083 
L 597.892523 75.437844 
L 600.577866 145.696364 
L 603.26321 129.637273 
L 605.948553 125.622501 
L 608.633896 123.615114 
L 611.319239 121.607728 
L 614.004583 141.681587 
L 616.689926 141.681587 
L 619.375269 141.681587 
L 622.060612 133.652045 
L 624.745955 131.644659 
L 627.431299 137.666817 
L 630.116642 145.696364 
L 632.801985 145.696364 
L 635.487328 137.666817 
L 638.172672 123.615114 
L 640.858015 129.637273 
L 643.543358 137.666817 
L 646.228701 145.696364 
L 648.914045 141.681587 
L 651.599388 141.681587 
L 654.284731 129.637273 
L 656.970074 127.629887 
L 659.655417 141.681587 
L 662.340761 145.696364 
L 665.026104 137.666817 
L 667.711447 137.666817 
L 670.39679 129.637273 
L 673.082134 129.637273 
L 675.767477 133.652045 
L 678.45282 145.696364 
L 681.138163 137.666817 
L 683.823506 131.644659 
L 686.50885 81.460002 
L 689.194193 17.223636 
L 691.879536 33.282734 
L 694.564879 145.696364 
L 697.250223 145.696364 
L 699.935566 129.637273 
L 702.620909 125.622501 
" clip-path="url(#p29159aff08)" style="fill: none; stroke: #0c5da5; stroke-width: 1.5; stroke-linecap: square"/>
   </g>
   <g id="patch_21">
    <path d="M 564.46 152.12 
L 564.46 10.8 
" style="fill: none; stroke: #000000; stroke-width: 0.8; stroke-linejoin: miter; stroke-linecap: square"/>
   </g>
   <g id="patch_22">
    <path d="M 709.2 152.12 
L 709.2 10.8 
" style="fill: none; stroke: #000000; stroke-width: 0.8; stroke-linejoin: miter; stroke-linecap: square"/>
   </g>
   <g id="patch_23">
    <path d="M 564.46 152.12 
L 709.2 152.12 
" style="fill: none; stroke: #000000; stroke-width: 0.8; stroke-linejoin: miter; stroke-linecap: square"/>
   </g>
   <g id="patch_24">
    <path d="M 564.46 10.8 
L 709.2 10.8 
" style="fill: none; stroke: #000000; stroke-width: 0.8; stroke-linejoin: miter; stroke-linecap: square"/>
   </g>
   <g id="legend_4">
    <g id="patch_25">
     <path d="M 633.6875 48.15625 
L 702.2 48.15625 
Q 704.2 48.15625 704.2 46.15625 
L 704.2 17.8 
Q 704.2 15.8 702.2 15.8 
L 633.6875 15.8 
Q 631.6875 15.8 631.6875 17.8 
L 631.6875 46.15625 
Q 631.6875 48.15625 633.6875 48.15625 
z
" style="fill: #ffffff; opacity: 0.8; stroke: #cccccc; stroke-linejoin: miter"/>
    </g>
    <g id="line2d_73">
     <path d="M 635.6875 23.898438 
L 645.6875 23.898438 
L 655.6875 23.898438 
" style="fill: none; stroke: #ff6b35; stroke-width: 1.5; stroke-linecap: square"/>
    </g>
    <g id="text_36">
     <!-- MLP - E -->
     <g transform="translate(663.6875 27.398438) scale(0.1 -0.1)">
      <use xlink:href="#DejaVuSans-4d"/>
      <use xlink:href="#DejaVuSans-4c" x="86.279297"/>
      <use xlink:href="#DejaVuSans-50" x="141.992188"/>
      <use xlink:href="#DejaVuSans-20" x="202.294922"/>
      <use xlink:href="#DejaVuSans-2d" x="234.082031"/>
      <use xlink:href="#DejaVuSans-20" x="270.166016"/>
      <use xlink:href="#DejaVuSans-45" x="301.953125"/>
     </g>
    </g>
    <g id="line2d_74">
     <path d="M 635.6875 38.576562 
L 645.6875 38.576562 
L 655.6875 38.576562 
" style="fill: none; stroke: #0c5da5; stroke-width: 1.5; stroke-linecap: square"/>
    </g>
    <g id="text_37">
     <!-- True -->
     <g transform="translate(663.6875 42.076562) scale(0.1 -0.1)">
      <use xlink:href="#DejaVuSans-54"/>
      <use xlink:href="#DejaVuSans-72" x="46.333984"/>
      <use xlink:href="#DejaVuSans-75" x="87.447266"/>
      <use xlink:href="#DejaVuSans-65" x="150.826172"/>
     </g>
    </g>
   </g>
  </g>
 </g>
 <defs>
  <clipPath id="p1db7db3481">
   <rect x="32.56" y="10.8" width="144.74" height="141.32"/>
  </clipPath>
  <clipPath id="pde2d4fc842">
   <rect x="209.86" y="10.8" width="144.74" height="141.32"/>
  </clipPath>
  <clipPath id="p8d84e7f898">
   <rect x="387.16" y="10.8" width="144.74" height="141.32"/>
  </clipPath>
  <clipPath id="p29159aff08">
   <rect x="564.46" y="10.8" width="144.74" height="141.32"/>
  </clipPath>
 </defs>
</svg>
