<?xml version="1.0" encoding="utf-8" standalone="no"?>
<!DOCTYPE svg PUBLIC "-//W3C//DTD SVG 1.1//EN"
  "http://www.w3.org/Graphics/SVG/1.1/DTD/svg11.dtd">
<svg xmlns:xlink="http://www.w3.org/1999/xlink" width="720pt" height="180pt" viewBox="0 0 720 180" xmlns="http://www.w3.org/2000/svg" version="1.1">
 <metadata>
  <rdf:RDF xmlns:dc="http://purl.org/dc/elements/1.1/" xmlns:cc="http://creativecommons.org/ns#" xmlns:rdf="http://www.w3.org/1999/02/22-rdf-syntax-ns#">
   <cc:Work>
    <dc:type rdf:resource="http://purl.org/dc/dcmitype/StillImage"/>
    <dc:date>2025-06-17T14:15:17.832690</dc:date>
    <dc:format>image/svg+xml</dc:format>
    <dc:creator>
     <cc:Agent>
      <dc:title>Matplotlib v3.7.0, https://matplotlib.org/</dc:title>
     </cc:Agent>
    </dc:creator>
   </cc:Work>
  </rdf:RDF>
 </metadata>
 <defs>
  <style type="text/css">*{stroke-linejoin: round; stroke-linecap: butt}</style>
 </defs>
 <g id="figure_1">
  <g id="patch_1">
   <path d="M 0 180 
L 720 180 
L 720 0 
L 0 0 
z
" style="fill: #ffffff"/>
  </g>
  <g id="axes_1">
   <g id="patch_2">
    <path d="M 42.01 152.12 
L 184.3875 152.12 
L 184.3875 10.8 
L 42.01 10.8 
z
" style="fill: #ffffff"/>
   </g>
   <g id="matplotlib.axis_1">
    <g id="xtick_1">
     <g id="line2d_1">
      <path d="M 48.481705 152.12 
L 48.481705 10.8 
" clip-path="url(#pf079dcbb16)" style="fill: none; stroke: #b0b0b0; stroke-width: 0.8; stroke-linecap: square"/>
     </g>
     <g id="line2d_2">
      <defs>
       <path id="m425b3fbfd9" d="M 0 0 
L 0 3.5 
" style="stroke: #000000; stroke-width: 0.8"/>
      </defs>
      <g>
       <use xlink:href="#m425b3fbfd9" x="48.481705" y="152.12" style="stroke: #000000; stroke-width: 0.8"/>
      </g>
     </g>
     <g id="text_1">
      <!-- 0 -->
      <g transform="translate(45.300455 166.718437) scale(0.1 -0.1)">
       <defs>
        <path id="DejaVuSans-30" d="M 2034 4250 
Q 1547 4250 1301 3770 
Q 1056 3291 1056 2328 
Q 1056 1369 1301 889 
Q 1547 409 2034 409 
Q 2525 409 2770 889 
Q 3016 1369 3016 2328 
Q 3016 3291 2770 3770 
Q 2525 4250 2034 4250 
z
M 2034 4750 
Q 2819 4750 3233 4129 
Q 3647 3509 3647 2328 
Q 3647 1150 3233 529 
Q 2819 -91 2034 -91 
Q 1250 -91 836 529 
Q 422 1150 422 2328 
Q 422 3509 836 4129 
Q 1250 4750 2034 4750 
z
" transform="scale(0.015625)"/>
       </defs>
       <use xlink:href="#DejaVuSans-30"/>
      </g>
     </g>
    </g>
    <g id="xtick_2">
     <g id="line2d_3">
      <path d="M 101.311946 152.12 
L 101.311946 10.8 
" clip-path="url(#pf079dcbb16)" style="fill: none; stroke: #b0b0b0; stroke-width: 0.8; stroke-linecap: square"/>
     </g>
     <g id="line2d_4">
      <g>
       <use xlink:href="#m425b3fbfd9" x="101.311946" y="152.12" style="stroke: #000000; stroke-width: 0.8"/>
      </g>
     </g>
     <g id="text_2">
      <!-- 20 -->
      <g transform="translate(94.949446 166.718437) scale(0.1 -0.1)">
       <defs>
        <path id="DejaVuSans-32" d="M 1228 531 
L 3431 531 
L 3431 0 
L 469 0 
L 469 531 
Q 828 903 1448 1529 
Q 2069 2156 2228 2338 
Q 2531 2678 2651 2914 
Q 2772 3150 2772 3378 
Q 2772 3750 2511 3984 
Q 2250 4219 1831 4219 
Q 1534 4219 1204 4116 
Q 875 4013 500 3803 
L 500 4441 
Q 881 4594 1212 4672 
Q 1544 4750 1819 4750 
Q 2544 4750 2975 4387 
Q 3406 4025 3406 3419 
Q 3406 3131 3298 2873 
Q 3191 2616 2906 2266 
Q 2828 2175 2409 1742 
Q 1991 1309 1228 531 
z
" transform="scale(0.015625)"/>
       </defs>
       <use xlink:href="#DejaVuSans-32"/>
       <use xlink:href="#DejaVuSans-30" x="63.623047"/>
      </g>
     </g>
    </g>
    <g id="xtick_3">
     <g id="line2d_5">
      <path d="M 154.142187 152.12 
L 154.142187 10.8 
" clip-path="url(#pf079dcbb16)" style="fill: none; stroke: #b0b0b0; stroke-width: 0.8; stroke-linecap: square"/>
     </g>
     <g id="line2d_6">
      <g>
       <use xlink:href="#m425b3fbfd9" x="154.142187" y="152.12" style="stroke: #000000; stroke-width: 0.8"/>
      </g>
     </g>
     <g id="text_3">
      <!-- 40 -->
      <g transform="translate(147.779687 166.718437) scale(0.1 -0.1)">
       <defs>
        <path id="DejaVuSans-34" d="M 2419 4116 
L 825 1625 
L 2419 1625 
L 2419 4116 
z
M 2253 4666 
L 3047 4666 
L 3047 1625 
L 3713 1625 
L 3713 1100 
L 3047 1100 
L 3047 0 
L 2419 0 
L 2419 1100 
L 313 1100 
L 313 1709 
L 2253 4666 
z
" transform="scale(0.015625)"/>
       </defs>
       <use xlink:href="#DejaVuSans-34"/>
       <use xlink:href="#DejaVuSans-30" x="63.623047"/>
      </g>
     </g>
    </g>
   </g>
   <g id="matplotlib.axis_2">
    <g id="ytick_1">
     <g id="line2d_7">
      <path d="M 42.01 138.891035 
L 184.3875 138.891035 
" clip-path="url(#pf079dcbb16)" style="fill: none; stroke: #b0b0b0; stroke-width: 0.8; stroke-linecap: square"/>
     </g>
     <g id="line2d_8">
      <defs>
       <path id="m47a2226d77" d="M 0 0 
L -3.5 0 
" style="stroke: #000000; stroke-width: 0.8"/>
      </defs>
      <g>
       <use xlink:href="#m47a2226d77" x="42.01" y="138.891035" style="stroke: #000000; stroke-width: 0.8"/>
      </g>
     </g>
     <g id="text_4">
      <!-- −1.0 -->
      <g transform="translate(10.727188 142.690254) scale(0.1 -0.1)">
       <defs>
        <path id="DejaVuSans-2212" d="M 678 2272 
L 4684 2272 
L 4684 1741 
L 678 1741 
L 678 2272 
z
" transform="scale(0.015625)"/>
        <path id="DejaVuSans-31" d="M 794 531 
L 1825 531 
L 1825 4091 
L 703 3866 
L 703 4441 
L 1819 4666 
L 2450 4666 
L 2450 531 
L 3481 531 
L 3481 0 
L 794 0 
L 794 531 
z
" transform="scale(0.015625)"/>
        <path id="DejaVuSans-2e" d="M 684 794 
L 1344 794 
L 1344 0 
L 684 0 
L 684 794 
z
" transform="scale(0.015625)"/>
       </defs>
       <use xlink:href="#DejaVuSans-2212"/>
       <use xlink:href="#DejaVuSans-31" x="83.789062"/>
       <use xlink:href="#DejaVuSans-2e" x="147.412109"/>
       <use xlink:href="#DejaVuSans-30" x="179.199219"/>
      </g>
     </g>
    </g>
    <g id="ytick_2">
     <g id="line2d_9">
      <path d="M 42.01 109.147879 
L 184.3875 109.147879 
" clip-path="url(#pf079dcbb16)" style="fill: none; stroke: #b0b0b0; stroke-width: 0.8; stroke-linecap: square"/>
     </g>
     <g id="line2d_10">
      <g>
       <use xlink:href="#m47a2226d77" x="42.01" y="109.147879" style="stroke: #000000; stroke-width: 0.8"/>
      </g>
     </g>
     <g id="text_5">
      <!-- −0.5 -->
      <g transform="translate(10.727188 112.947098) scale(0.1 -0.1)">
       <defs>
        <path id="DejaVuSans-35" d="M 691 4666 
L 3169 4666 
L 3169 4134 
L 1269 4134 
L 1269 2991 
Q 1406 3038 1543 3061 
Q 1681 3084 1819 3084 
Q 2600 3084 3056 2656 
Q 3513 2228 3513 1497 
Q 3513 744 3044 326 
Q 2575 -91 1722 -91 
Q 1428 -91 1123 -41 
Q 819 9 494 109 
L 494 744 
Q 775 591 1075 516 
Q 1375 441 1709 441 
Q 2250 441 2565 725 
Q 2881 1009 2881 1497 
Q 2881 1984 2565 2268 
Q 2250 2553 1709 2553 
Q 1456 2553 1204 2497 
Q 953 2441 691 2322 
L 691 4666 
z
" transform="scale(0.015625)"/>
       </defs>
       <use xlink:href="#DejaVuSans-2212"/>
       <use xlink:href="#DejaVuSans-30" x="83.789062"/>
       <use xlink:href="#DejaVuSans-2e" x="147.412109"/>
       <use xlink:href="#DejaVuSans-35" x="179.199219"/>
      </g>
     </g>
    </g>
    <g id="ytick_3">
     <g id="line2d_11">
      <path d="M 42.01 79.404722 
L 184.3875 79.404722 
" clip-path="url(#pf079dcbb16)" style="fill: none; stroke: #b0b0b0; stroke-width: 0.8; stroke-linecap: square"/>
     </g>
     <g id="line2d_12">
      <g>
       <use xlink:href="#m47a2226d77" x="42.01" y="79.404722" style="stroke: #000000; stroke-width: 0.8"/>
      </g>
     </g>
     <g id="text_6">
      <!-- 0.0 -->
      <g transform="translate(19.106875 83.203941) scale(0.1 -0.1)">
       <use xlink:href="#DejaVuSans-30"/>
       <use xlink:href="#DejaVuSans-2e" x="63.623047"/>
       <use xlink:href="#DejaVuSans-30" x="95.410156"/>
      </g>
     </g>
    </g>
    <g id="ytick_4">
     <g id="line2d_13">
      <path d="M 42.01 49.661566 
L 184.3875 49.661566 
" clip-path="url(#pf079dcbb16)" style="fill: none; stroke: #b0b0b0; stroke-width: 0.8; stroke-linecap: square"/>
     </g>
     <g id="line2d_14">
      <g>
       <use xlink:href="#m47a2226d77" x="42.01" y="49.661566" style="stroke: #000000; stroke-width: 0.8"/>
      </g>
     </g>
     <g id="text_7">
      <!-- 0.5 -->
      <g transform="translate(19.106875 53.460785) scale(0.1 -0.1)">
       <use xlink:href="#DejaVuSans-30"/>
       <use xlink:href="#DejaVuSans-2e" x="63.623047"/>
       <use xlink:href="#DejaVuSans-35" x="95.410156"/>
      </g>
     </g>
    </g>
    <g id="ytick_5">
     <g id="line2d_15">
      <path d="M 42.01 19.918409 
L 184.3875 19.918409 
" clip-path="url(#pf079dcbb16)" style="fill: none; stroke: #b0b0b0; stroke-width: 0.8; stroke-linecap: square"/>
     </g>
     <g id="line2d_16">
      <g>
       <use xlink:href="#m47a2226d77" x="42.01" y="19.918409" style="stroke: #000000; stroke-width: 0.8"/>
      </g>
     </g>
     <g id="text_8">
      <!-- 1.0 -->
      <g transform="translate(19.106875 23.717628) scale(0.1 -0.1)">
       <use xlink:href="#DejaVuSans-31"/>
       <use xlink:href="#DejaVuSans-2e" x="63.623047"/>
       <use xlink:href="#DejaVuSans-30" x="95.410156"/>
      </g>
     </g>
    </g>
   </g>
   <g id="line2d_17">
    <path d="M 48.481705 91.221401 
L 51.123217 112.947256 
L 53.764729 84.51589 
L 56.406241 71.283682 
L 59.047753 68.869698 
L 61.689265 76.290463 
L 64.330777 96.764622 
L 66.972289 114.467175 
L 69.613801 81.386652 
L 72.255313 69.94258 
L 74.896825 70.747241 
L 77.538337 76.37987 
L 80.179849 96.675217 
L 82.821361 113.483701 
L 85.462873 86.125213 
L 88.104385 70.747241 
L 90.745897 71.015462 
L 93.38741 75.217582 
L 96.028922 98.195133 
L 98.670434 113.662512 
L 101.311946 84.605297 
L 103.953458 67.349783 
L 106.59497 70.836649 
L 109.236482 73.697666 
L 111.877994 98.373946 
L 114.519506 112.58963 
L 117.161018 89.075638 
L 119.80253 68.601478 
L 122.444042 70.389614 
L 125.085554 64.667579 
L 127.727066 95.423522 
L 130.368578 112.232001 
L 133.01009 106.062933 
L 135.651603 77.542159 
L 138.293115 72.445971 
L 140.934627 75.754023 
L 143.576139 90.14852 
L 146.217651 109.281579 
L 148.859163 108.298103 
L 151.500675 84.784111 
L 154.142187 72.088344 
L 156.783699 78.0786 
L 159.425211 91.489622 
L 162.066723 112.232001 
L 164.708235 85.231145 
L 167.349747 73.071819 
L 169.991259 69.495546 
L 172.632771 74.770548 
L 175.274283 95.959963 
L 177.915795 113.841327 
" clip-path="url(#pf079dcbb16)" style="fill: none; stroke: #0c5da5; stroke-width: 1.5; stroke-linecap: square"/>
   </g>
   <g id="line2d_18">
    <path d="M 48.481705 95.958397 
L 51.123217 145.696364 
L 53.764729 74.882045 
L 56.406241 23.505855 
L 59.047753 33.847257 
L 61.689265 59.053907 
L 64.330777 93.107923 
L 66.972289 140.659888 
L 69.613801 80.218129 
L 72.255313 46.442411 
L 74.896825 48.884212 
L 77.538337 53.454396 
L 80.179849 98.312362 
L 82.821361 130.613301 
L 85.462873 100.41321 
L 88.104385 47.321522 
L 90.745897 49.587653 
L 93.38741 17.720717 
L 96.028922 98.072999 
L 98.670434 133.445337 
L 101.311946 97.918838 
L 103.953458 42.896169 
L 106.59497 47.17599 
L 109.236482 61.263749 
L 111.877994 97.748979 
L 114.519506 138.063209 
L 117.161018 77.936183 
L 119.80253 32.107908 
L 122.444042 47.047166 
L 125.085554 62.987353 
L 127.727066 100.233319 
L 130.368578 140.632224 
L 133.01009 70.83668 
L 135.651603 30.840334 
L 138.293115 44.154598 
L 140.934627 54.075755 
L 143.576139 97.64282 
L 146.217651 140.816776 
L 148.859163 74.414601 
L 151.500675 17.223636 
L 154.142187 29.358507 
L 156.783699 46.165038 
L 159.425211 95.587493 
L 162.066723 141.773955 
L 164.708235 74.607817 
L 167.349747 39.942354 
L 169.991259 43.368986 
L 172.632771 69.827251 
L 175.274283 98.617049 
L 177.915795 124.476979 
" clip-path="url(#pf079dcbb16)" style="fill: none; stroke: #ff9500; stroke-width: 1.5; stroke-linecap: square"/>
   </g>
   <g id="line2d_19">
    <path d="M 48.481705 99.218781 
L 51.123217 128.330395 
L 53.764729 63.310948 
L 56.406241 22.593915 
L 59.047753 35.210407 
L 61.689265 61.41233 
L 64.330777 98.346545 
L 66.972289 131.642393 
L 69.613801 67.29135 
L 72.255313 35.652413 
L 74.896825 44.057951 
L 77.538337 55.95466 
L 80.179849 105.604954 
L 82.821361 131.756287 
L 85.462873 82.762765 
L 88.104385 40.594822 
L 90.745897 56.087888 
L 93.38741 46.59219 
L 96.028922 99.246611 
L 98.670434 130.401501 
L 101.311946 79.153307 
L 103.953458 36.262341 
L 106.59497 51.170131 
L 109.236482 67.084201 
L 111.877994 94.678086 
L 114.519506 126.794646 
L 117.161018 63.812888 
L 119.80253 23.3219 
L 122.444042 43.198029 
L 125.085554 65.975452 
L 127.727066 94.256996 
L 130.368578 126.809431 
L 133.01009 58.996668 
L 135.651603 24.390448 
L 138.293115 39.928182 
L 140.934627 62.918693 
L 143.576139 98.89146 
L 146.217651 127.416955 
L 148.859163 63.940804 
L 151.500675 21.236615 
L 154.142187 37.570023 
L 156.783699 61.335347 
L 159.425211 98.86246 
L 162.066723 123.800903 
L 164.708235 59.462233 
L 167.349747 27.432859 
L 169.991259 39.690824 
L 172.632771 58.464083 
L 175.274283 101.930226 
L 177.915795 127.473448 
" clip-path="url(#pf079dcbb16)" style="fill: none; stroke: #00b945; stroke-width: 1.5; stroke-linecap: square"/>
   </g>
   <g id="patch_3">
    <path d="M 42.01 152.12 
L 42.01 10.8 
" style="fill: none; stroke: #000000; stroke-width: 0.8; stroke-linejoin: miter; stroke-linecap: square"/>
   </g>
   <g id="patch_4">
    <path d="M 184.3875 152.12 
L 184.3875 10.8 
" style="fill: none; stroke: #000000; stroke-width: 0.8; stroke-linejoin: miter; stroke-linecap: square"/>
   </g>
   <g id="patch_5">
    <path d="M 42.01 152.12 
L 184.3875 152.12 
" style="fill: none; stroke: #000000; stroke-width: 0.8; stroke-linejoin: miter; stroke-linecap: square"/>
   </g>
   <g id="patch_6">
    <path d="M 42.01 10.8 
L 184.3875 10.8 
" style="fill: none; stroke: #000000; stroke-width: 0.8; stroke-linejoin: miter; stroke-linecap: square"/>
   </g>
   <g id="legend_1">
    <g id="patch_7">
     <path d="M 91.34375 62.834375 
L 177.3875 62.834375 
Q 179.3875 62.834375 179.3875 60.834375 
L 179.3875 17.8 
Q 179.3875 15.8 177.3875 15.8 
L 91.34375 15.8 
Q 89.34375 15.8 89.34375 17.8 
L 89.34375 60.834375 
Q 89.34375 62.834375 91.34375 62.834375 
z
" style="fill: #ffffff; opacity: 0.8; stroke: #cccccc; stroke-linejoin: miter"/>
    </g>
    <g id="line2d_20">
     <path d="M 93.34375 23.898438 
L 103.34375 23.898438 
L 113.34375 23.898438 
" style="fill: none; stroke: #0c5da5; stroke-width: 1.5; stroke-linecap: square"/>
    </g>
    <g id="text_9">
     <!-- True Value -->
     <g transform="translate(121.34375 27.398438) scale(0.1 -0.1)">
      <defs>
       <path id="DejaVuSans-54" d="M -19 4666 
L 3928 4666 
L 3928 4134 
L 2272 4134 
L 2272 0 
L 1638 0 
L 1638 4134 
L -19 4134 
L -19 4666 
z
" transform="scale(0.015625)"/>
       <path id="DejaVuSans-72" d="M 2631 2963 
Q 2534 3019 2420 3045 
Q 2306 3072 2169 3072 
Q 1681 3072 1420 2755 
Q 1159 2438 1159 1844 
L 1159 0 
L 581 0 
L 581 3500 
L 1159 3500 
L 1159 2956 
Q 1341 3275 1631 3429 
Q 1922 3584 2338 3584 
Q 2397 3584 2469 3576 
Q 2541 3569 2628 3553 
L 2631 2963 
z
" transform="scale(0.015625)"/>
       <path id="DejaVuSans-75" d="M 544 1381 
L 544 3500 
L 1119 3500 
L 1119 1403 
Q 1119 906 1312 657 
Q 1506 409 1894 409 
Q 2359 409 2629 706 
Q 2900 1003 2900 1516 
L 2900 3500 
L 3475 3500 
L 3475 0 
L 2900 0 
L 2900 538 
Q 2691 219 2414 64 
Q 2138 -91 1772 -91 
Q 1169 -91 856 284 
Q 544 659 544 1381 
z
M 1991 3584 
L 1991 3584 
z
" transform="scale(0.015625)"/>
       <path id="DejaVuSans-65" d="M 3597 1894 
L 3597 1613 
L 953 1613 
Q 991 1019 1311 708 
Q 1631 397 2203 397 
Q 2534 397 2845 478 
Q 3156 559 3463 722 
L 3463 178 
Q 3153 47 2828 -22 
Q 2503 -91 2169 -91 
Q 1331 -91 842 396 
Q 353 884 353 1716 
Q 353 2575 817 3079 
Q 1281 3584 2069 3584 
Q 2775 3584 3186 3129 
Q 3597 2675 3597 1894 
z
M 3022 2063 
Q 3016 2534 2758 2815 
Q 2500 3097 2075 3097 
Q 1594 3097 1305 2825 
Q 1016 2553 972 2059 
L 3022 2063 
z
" transform="scale(0.015625)"/>
       <path id="DejaVuSans-20" transform="scale(0.015625)"/>
       <path id="DejaVuSans-56" d="M 1831 0 
L 50 4666 
L 709 4666 
L 2188 738 
L 3669 4666 
L 4325 4666 
L 2547 0 
L 1831 0 
z
" transform="scale(0.015625)"/>
       <path id="DejaVuSans-61" d="M 2194 1759 
Q 1497 1759 1228 1600 
Q 959 1441 959 1056 
Q 959 750 1161 570 
Q 1363 391 1709 391 
Q 2188 391 2477 730 
Q 2766 1069 2766 1631 
L 2766 1759 
L 2194 1759 
z
M 3341 1997 
L 3341 0 
L 2766 0 
L 2766 531 
Q 2569 213 2275 61 
Q 1981 -91 1556 -91 
Q 1019 -91 701 211 
Q 384 513 384 1019 
Q 384 1609 779 1909 
Q 1175 2209 1959 2209 
L 2766 2209 
L 2766 2266 
Q 2766 2663 2505 2880 
Q 2244 3097 1772 3097 
Q 1472 3097 1187 3025 
Q 903 2953 641 2809 
L 641 3341 
Q 956 3463 1253 3523 
Q 1550 3584 1831 3584 
Q 2591 3584 2966 3190 
Q 3341 2797 3341 1997 
z
" transform="scale(0.015625)"/>
       <path id="DejaVuSans-6c" d="M 603 4863 
L 1178 4863 
L 1178 0 
L 603 0 
L 603 4863 
z
" transform="scale(0.015625)"/>
      </defs>
      <use xlink:href="#DejaVuSans-54"/>
      <use xlink:href="#DejaVuSans-72" x="46.333984"/>
      <use xlink:href="#DejaVuSans-75" x="87.447266"/>
      <use xlink:href="#DejaVuSans-65" x="150.826172"/>
      <use xlink:href="#DejaVuSans-20" x="212.349609"/>
      <use xlink:href="#DejaVuSans-56" x="244.136719"/>
      <use xlink:href="#DejaVuSans-61" x="304.794922"/>
      <use xlink:href="#DejaVuSans-6c" x="366.074219"/>
      <use xlink:href="#DejaVuSans-75" x="393.857422"/>
      <use xlink:href="#DejaVuSans-65" x="457.236328"/>
     </g>
    </g>
    <g id="line2d_21">
     <path d="M 93.34375 38.576563 
L 103.34375 38.576563 
L 113.34375 38.576563 
" style="fill: none; stroke: #ff9500; stroke-width: 1.5; stroke-linecap: square"/>
    </g>
    <g id="text_10">
     <!-- MLP -->
     <g transform="translate(121.34375 42.076563) scale(0.1 -0.1)">
      <defs>
       <path id="DejaVuSans-4d" d="M 628 4666 
L 1569 4666 
L 2759 1491 
L 3956 4666 
L 4897 4666 
L 4897 0 
L 4281 0 
L 4281 4097 
L 3078 897 
L 2444 897 
L 1241 4097 
L 1241 0 
L 628 0 
L 628 4666 
z
" transform="scale(0.015625)"/>
       <path id="DejaVuSans-4c" d="M 628 4666 
L 1259 4666 
L 1259 531 
L 3531 531 
L 3531 0 
L 628 0 
L 628 4666 
z
" transform="scale(0.015625)"/>
       <path id="DejaVuSans-50" d="M 1259 4147 
L 1259 2394 
L 2053 2394 
Q 2494 2394 2734 2622 
Q 2975 2850 2975 3272 
Q 2975 3691 2734 3919 
Q 2494 4147 2053 4147 
L 1259 4147 
z
M 628 4666 
L 2053 4666 
Q 2838 4666 3239 4311 
Q 3641 3956 3641 3272 
Q 3641 2581 3239 2228 
Q 2838 1875 2053 1875 
L 1259 1875 
L 1259 0 
L 628 0 
L 628 4666 
z
" transform="scale(0.015625)"/>
      </defs>
      <use xlink:href="#DejaVuSans-4d"/>
      <use xlink:href="#DejaVuSans-4c" x="86.279297"/>
      <use xlink:href="#DejaVuSans-50" x="141.992188"/>
     </g>
    </g>
    <g id="line2d_22">
     <path d="M 93.34375 53.254688 
L 103.34375 53.254688 
L 113.34375 53.254688 
" style="fill: none; stroke: #00b945; stroke-width: 1.5; stroke-linecap: square"/>
    </g>
    <g id="text_11">
     <!-- Interpreter -->
     <g transform="translate(121.34375 56.754688) scale(0.1 -0.1)">
      <defs>
       <path id="DejaVuSans-49" d="M 628 4666 
L 1259 4666 
L 1259 0 
L 628 0 
L 628 4666 
z
" transform="scale(0.015625)"/>
       <path id="DejaVuSans-6e" d="M 3513 2113 
L 3513 0 
L 2938 0 
L 2938 2094 
Q 2938 2591 2744 2837 
Q 2550 3084 2163 3084 
Q 1697 3084 1428 2787 
Q 1159 2491 1159 1978 
L 1159 0 
L 581 0 
L 581 3500 
L 1159 3500 
L 1159 2956 
Q 1366 3272 1645 3428 
Q 1925 3584 2291 3584 
Q 2894 3584 3203 3211 
Q 3513 2838 3513 2113 
z
" transform="scale(0.015625)"/>
       <path id="DejaVuSans-74" d="M 1172 4494 
L 1172 3500 
L 2356 3500 
L 2356 3053 
L 1172 3053 
L 1172 1153 
Q 1172 725 1289 603 
Q 1406 481 1766 481 
L 2356 481 
L 2356 0 
L 1766 0 
Q 1100 0 847 248 
Q 594 497 594 1153 
L 594 3053 
L 172 3053 
L 172 3500 
L 594 3500 
L 594 4494 
L 1172 4494 
z
" transform="scale(0.015625)"/>
       <path id="DejaVuSans-70" d="M 1159 525 
L 1159 -1331 
L 581 -1331 
L 581 3500 
L 1159 3500 
L 1159 2969 
Q 1341 3281 1617 3432 
Q 1894 3584 2278 3584 
Q 2916 3584 3314 3078 
Q 3713 2572 3713 1747 
Q 3713 922 3314 415 
Q 2916 -91 2278 -91 
Q 1894 -91 1617 61 
Q 1341 213 1159 525 
z
M 3116 1747 
Q 3116 2381 2855 2742 
Q 2594 3103 2138 3103 
Q 1681 3103 1420 2742 
Q 1159 2381 1159 1747 
Q 1159 1113 1420 752 
Q 1681 391 2138 391 
Q 2594 391 2855 752 
Q 3116 1113 3116 1747 
z
" transform="scale(0.015625)"/>
      </defs>
      <use xlink:href="#DejaVuSans-49"/>
      <use xlink:href="#DejaVuSans-6e" x="29.492188"/>
      <use xlink:href="#DejaVuSans-74" x="92.871094"/>
      <use xlink:href="#DejaVuSans-65" x="132.080078"/>
      <use xlink:href="#DejaVuSans-72" x="193.603516"/>
      <use xlink:href="#DejaVuSans-70" x="234.716797"/>
      <use xlink:href="#DejaVuSans-72" x="298.193359"/>
      <use xlink:href="#DejaVuSans-65" x="337.056641"/>
      <use xlink:href="#DejaVuSans-74" x="398.580078"/>
      <use xlink:href="#DejaVuSans-65" x="437.789062"/>
      <use xlink:href="#DejaVuSans-72" x="499.3125"/>
     </g>
    </g>
   </g>
  </g>
  <g id="axes_2">
   <g id="patch_8">
    <path d="M 216.9475 152.12 
L 359.325 152.12 
L 359.325 10.8 
L 216.9475 10.8 
z
" style="fill: #ffffff"/>
   </g>
   <g id="matplotlib.axis_3">
    <g id="xtick_4">
     <g id="line2d_23">
      <path d="M 223.419205 152.12 
L 223.419205 10.8 
" clip-path="url(#p0a05be8696)" style="fill: none; stroke: #b0b0b0; stroke-width: 0.8; stroke-linecap: square"/>
     </g>
     <g id="line2d_24">
      <g>
       <use xlink:href="#m425b3fbfd9" x="223.419205" y="152.12" style="stroke: #000000; stroke-width: 0.8"/>
      </g>
     </g>
     <g id="text_12">
      <!-- 0 -->
      <g transform="translate(220.237955 166.718437) scale(0.1 -0.1)">
       <use xlink:href="#DejaVuSans-30"/>
      </g>
     </g>
    </g>
    <g id="xtick_5">
     <g id="line2d_25">
      <path d="M 276.249446 152.12 
L 276.249446 10.8 
" clip-path="url(#p0a05be8696)" style="fill: none; stroke: #b0b0b0; stroke-width: 0.8; stroke-linecap: square"/>
     </g>
     <g id="line2d_26">
      <g>
       <use xlink:href="#m425b3fbfd9" x="276.249446" y="152.12" style="stroke: #000000; stroke-width: 0.8"/>
      </g>
     </g>
     <g id="text_13">
      <!-- 20 -->
      <g transform="translate(269.886946 166.718437) scale(0.1 -0.1)">
       <use xlink:href="#DejaVuSans-32"/>
       <use xlink:href="#DejaVuSans-30" x="63.623047"/>
      </g>
     </g>
    </g>
    <g id="xtick_6">
     <g id="line2d_27">
      <path d="M 329.079687 152.12 
L 329.079687 10.8 
" clip-path="url(#p0a05be8696)" style="fill: none; stroke: #b0b0b0; stroke-width: 0.8; stroke-linecap: square"/>
     </g>
     <g id="line2d_28">
      <g>
       <use xlink:href="#m425b3fbfd9" x="329.079687" y="152.12" style="stroke: #000000; stroke-width: 0.8"/>
      </g>
     </g>
     <g id="text_14">
      <!-- 40 -->
      <g transform="translate(322.717187 166.718437) scale(0.1 -0.1)">
       <use xlink:href="#DejaVuSans-34"/>
       <use xlink:href="#DejaVuSans-30" x="63.623047"/>
      </g>
     </g>
    </g>
   </g>
   <g id="matplotlib.axis_4">
    <g id="ytick_6">
     <g id="line2d_29">
      <path d="M 216.9475 127.502524 
L 359.325 127.502524 
" clip-path="url(#p0a05be8696)" style="fill: none; stroke: #b0b0b0; stroke-width: 0.8; stroke-linecap: square"/>
     </g>
     <g id="line2d_30">
      <g>
       <use xlink:href="#m47a2226d77" x="216.9475" y="127.502524" style="stroke: #000000; stroke-width: 0.8"/>
      </g>
     </g>
     <g id="text_15">
      <!-- 0 -->
      <g transform="translate(203.585 131.301743) scale(0.1 -0.1)">
       <use xlink:href="#DejaVuSans-30"/>
      </g>
     </g>
    </g>
    <g id="ytick_7">
     <g id="line2d_31">
      <path d="M 216.9475 96.63519 
L 359.325 96.63519 
" clip-path="url(#p0a05be8696)" style="fill: none; stroke: #b0b0b0; stroke-width: 0.8; stroke-linecap: square"/>
     </g>
     <g id="line2d_32">
      <g>
       <use xlink:href="#m47a2226d77" x="216.9475" y="96.63519" style="stroke: #000000; stroke-width: 0.8"/>
      </g>
     </g>
     <g id="text_16">
      <!-- 1 -->
      <g transform="translate(203.585 100.434408) scale(0.1 -0.1)">
       <use xlink:href="#DejaVuSans-31"/>
      </g>
     </g>
    </g>
    <g id="ytick_8">
     <g id="line2d_33">
      <path d="M 216.9475 65.767855 
L 359.325 65.767855 
" clip-path="url(#p0a05be8696)" style="fill: none; stroke: #b0b0b0; stroke-width: 0.8; stroke-linecap: square"/>
     </g>
     <g id="line2d_34">
      <g>
       <use xlink:href="#m47a2226d77" x="216.9475" y="65.767855" style="stroke: #000000; stroke-width: 0.8"/>
      </g>
     </g>
     <g id="text_17">
      <!-- 2 -->
      <g transform="translate(203.585 69.567074) scale(0.1 -0.1)">
       <use xlink:href="#DejaVuSans-32"/>
      </g>
     </g>
    </g>
    <g id="ytick_9">
     <g id="line2d_35">
      <path d="M 216.9475 34.900521 
L 359.325 34.900521 
" clip-path="url(#p0a05be8696)" style="fill: none; stroke: #b0b0b0; stroke-width: 0.8; stroke-linecap: square"/>
     </g>
     <g id="line2d_36">
      <g>
       <use xlink:href="#m47a2226d77" x="216.9475" y="34.900521" style="stroke: #000000; stroke-width: 0.8"/>
      </g>
     </g>
     <g id="text_18">
      <!-- 3 -->
      <g transform="translate(203.585 38.699739) scale(0.1 -0.1)">
       <defs>
        <path id="DejaVuSans-33" d="M 2597 2516 
Q 3050 2419 3304 2112 
Q 3559 1806 3559 1356 
Q 3559 666 3084 287 
Q 2609 -91 1734 -91 
Q 1441 -91 1130 -33 
Q 819 25 488 141 
L 488 750 
Q 750 597 1062 519 
Q 1375 441 1716 441 
Q 2309 441 2620 675 
Q 2931 909 2931 1356 
Q 2931 1769 2642 2001 
Q 2353 2234 1838 2234 
L 1294 2234 
L 1294 2753 
L 1863 2753 
Q 2328 2753 2575 2939 
Q 2822 3125 2822 3475 
Q 2822 3834 2567 4026 
Q 2313 4219 1838 4219 
Q 1578 4219 1281 4162 
Q 984 4106 628 3988 
L 628 4550 
Q 988 4650 1302 4700 
Q 1616 4750 1894 4750 
Q 2613 4750 3031 4423 
Q 3450 4097 3450 3541 
Q 3450 3153 3228 2886 
Q 3006 2619 2597 2516 
z
" transform="scale(0.015625)"/>
       </defs>
       <use xlink:href="#DejaVuSans-33"/>
      </g>
     </g>
    </g>
   </g>
   <g id="line2d_37">
    <path d="M 223.419205 40.045189 
L 226.060717 30.219277 
L 228.702229 39.165666 
L 231.343741 43.717275 
L 233.985253 25.398472 
L 236.626765 32.638707 
L 239.268277 38.634999 
L 241.909789 29.14677 
L 244.551301 38.472858 
L 247.192813 43.35504 
L 249.834325 24.432388 
L 252.475837 32.204527 
L 255.117349 37.68122 
L 257.758861 28.763643 
L 260.400373 36.841651 
L 263.041885 40.928406 
L 265.683397 21.12498 
L 268.32491 30.724209 
L 270.966422 35.144152 
L 273.607934 26.645608 
L 276.249446 34.874064 
L 278.890958 38.462437 
L 281.53247 18.382623 
L 284.173982 29.709503 
L 286.815494 33.284327 
L 289.457006 25.124277 
L 292.098518 33.41486 
L 294.74003 37.491658 
L 297.381542 17.690381 
L 300.023054 29.226045 
L 302.664566 32.779373 
L 305.306078 23.736268 
L 307.94759 33.034132 
L 310.589103 37.717921 
L 313.230615 17.966055 
L 315.872127 28.599544 
L 318.513639 33.430109 
L 321.155151 22.576192 
L 323.796663 31.901469 
L 326.438175 37.698389 
L 329.079687 17.223636 
L 331.721199 26.921591 
L 334.362711 32.339137 
L 337.004223 21.283294 
L 339.645735 30.749643 
L 342.287247 41.597879 
L 344.928759 23.476372 
L 347.570271 31.700302 
L 350.211783 38.547776 
L 352.853295 33.820021 
" clip-path="url(#p0a05be8696)" style="fill: none; stroke: #f08080; stroke-width: 1.5; stroke-linecap: square"/>
   </g>
   <g id="line2d_38">
    <path d="M 223.419205 133.634176 
L 226.060717 144.907681 
L 228.702229 130.154699 
L 231.343741 123.288532 
L 233.985253 122.03592 
L 236.626765 125.886541 
L 239.268277 136.510543 
L 241.909789 145.696364 
L 244.551301 128.530944 
L 247.192813 122.592636 
L 249.834325 123.010174 
L 252.475837 125.932934 
L 255.117349 136.464151 
L 257.758861 145.186041 
L 260.400373 130.989774 
L 263.041885 123.010174 
L 265.683397 123.149353 
L 268.32491 125.329825 
L 270.966422 137.252832 
L 273.607934 145.278826 
L 276.249446 130.201092 
L 278.890958 121.247239 
L 281.53247 123.056567 
L 284.173982 124.541143 
L 286.815494 137.345618 
L 289.457006 144.722109 
L 292.098518 132.520744 
L 294.74003 121.896741 
L 297.381542 122.824602 
L 300.023054 119.855448 
L 302.664566 135.814649 
L 305.306078 144.536536 
L 307.94759 141.335418 
L 310.589103 126.536043 
L 313.230615 123.891641 
L 315.872127 125.608183 
L 318.513639 133.07746 
L 321.155151 143.005568 
L 323.796663 142.495244 
L 326.438175 130.293878 
L 329.079687 123.706069 
L 331.721199 126.814402 
L 334.362711 133.773355 
L 337.004223 144.536536 
L 339.645735 130.525844 
L 342.287247 124.216392 
L 344.928759 122.360671 
L 347.570271 125.09786 
L 350.211783 136.093007 
L 352.853295 145.371612 
" clip-path="url(#p0a05be8696)" style="fill: none; stroke: #0c5da5; stroke-width: 1.5; stroke-linecap: square"/>
   </g>
   <g id="patch_9">
    <path d="M 216.9475 152.12 
L 216.9475 10.8 
" style="fill: none; stroke: #000000; stroke-width: 0.8; stroke-linejoin: miter; stroke-linecap: square"/>
   </g>
   <g id="patch_10">
    <path d="M 359.325 152.12 
L 359.325 10.8 
" style="fill: none; stroke: #000000; stroke-width: 0.8; stroke-linejoin: miter; stroke-linecap: square"/>
   </g>
   <g id="patch_11">
    <path d="M 216.9475 152.12 
L 359.325 152.12 
" style="fill: none; stroke: #000000; stroke-width: 0.8; stroke-linejoin: miter; stroke-linecap: square"/>
   </g>
   <g id="patch_12">
    <path d="M 216.9475 10.8 
L 359.325 10.8 
" style="fill: none; stroke: #000000; stroke-width: 0.8; stroke-linejoin: miter; stroke-linecap: square"/>
   </g>
   <g id="legend_2">
    <g id="patch_13">
     <path d="M 249.998437 48.15625 
L 352.325 48.15625 
Q 354.325 48.15625 354.325 46.15625 
L 354.325 17.8 
Q 354.325 15.8 352.325 15.8 
L 249.998437 15.8 
Q 247.998437 15.8 247.998437 17.8 
L 247.998437 46.15625 
Q 247.998437 48.15625 249.998437 48.15625 
z
" style="fill: #ffffff; opacity: 0.8; stroke: #cccccc; stroke-linejoin: miter"/>
    </g>
    <g id="line2d_39">
     <path d="M 251.998437 23.898438 
L 261.998437 23.898438 
L 271.998437 23.898438 
" style="fill: none; stroke: #f08080; stroke-width: 1.5; stroke-linecap: square"/>
    </g>
    <g id="text_19">
     <!-- Interpreter - E -->
     <g transform="translate(279.998437 27.398438) scale(0.1 -0.1)">
      <defs>
       <path id="DejaVuSans-2d" d="M 313 2009 
L 1997 2009 
L 1997 1497 
L 313 1497 
L 313 2009 
z
" transform="scale(0.015625)"/>
       <path id="DejaVuSans-45" d="M 628 4666 
L 3578 4666 
L 3578 4134 
L 1259 4134 
L 1259 2753 
L 3481 2753 
L 3481 2222 
L 1259 2222 
L 1259 531 
L 3634 531 
L 3634 0 
L 628 0 
L 628 4666 
z
" transform="scale(0.015625)"/>
      </defs>
      <use xlink:href="#DejaVuSans-49"/>
      <use xlink:href="#DejaVuSans-6e" x="29.492188"/>
      <use xlink:href="#DejaVuSans-74" x="92.871094"/>
      <use xlink:href="#DejaVuSans-65" x="132.080078"/>
      <use xlink:href="#DejaVuSans-72" x="193.603516"/>
      <use xlink:href="#DejaVuSans-70" x="234.716797"/>
      <use xlink:href="#DejaVuSans-72" x="298.193359"/>
      <use xlink:href="#DejaVuSans-65" x="337.056641"/>
      <use xlink:href="#DejaVuSans-74" x="398.580078"/>
      <use xlink:href="#DejaVuSans-65" x="437.789062"/>
      <use xlink:href="#DejaVuSans-72" x="499.3125"/>
      <use xlink:href="#DejaVuSans-20" x="540.425781"/>
      <use xlink:href="#DejaVuSans-2d" x="572.212891"/>
      <use xlink:href="#DejaVuSans-20" x="608.296875"/>
      <use xlink:href="#DejaVuSans-45" x="640.083984"/>
     </g>
    </g>
    <g id="line2d_40">
     <path d="M 251.998437 38.576563 
L 261.998437 38.576563 
L 271.998437 38.576563 
" style="fill: none; stroke: #0c5da5; stroke-width: 1.5; stroke-linecap: square"/>
    </g>
    <g id="text_20">
     <!-- True -->
     <g transform="translate(279.998437 42.076563) scale(0.1 -0.1)">
      <use xlink:href="#DejaVuSans-54"/>
      <use xlink:href="#DejaVuSans-72" x="46.333984"/>
      <use xlink:href="#DejaVuSans-75" x="87.447266"/>
      <use xlink:href="#DejaVuSans-65" x="150.826172"/>
     </g>
    </g>
   </g>
  </g>
  <g id="axes_3">
   <g id="patch_14">
    <path d="M 391.885 152.12 
L 534.2625 152.12 
L 534.2625 10.8 
L 391.885 10.8 
z
" style="fill: #ffffff"/>
   </g>
   <g id="matplotlib.axis_5">
    <g id="xtick_7">
     <g id="line2d_41">
      <path d="M 398.356705 152.12 
L 398.356705 10.8 
" clip-path="url(#p9207506052)" style="fill: none; stroke: #b0b0b0; stroke-width: 0.8; stroke-linecap: square"/>
     </g>
     <g id="line2d_42">
      <g>
       <use xlink:href="#m425b3fbfd9" x="398.356705" y="152.12" style="stroke: #000000; stroke-width: 0.8"/>
      </g>
     </g>
     <g id="text_21">
      <!-- 0 -->
      <g transform="translate(395.175455 166.718437) scale(0.1 -0.1)">
       <use xlink:href="#DejaVuSans-30"/>
      </g>
     </g>
    </g>
    <g id="xtick_8">
     <g id="line2d_43">
      <path d="M 451.186946 152.12 
L 451.186946 10.8 
" clip-path="url(#p9207506052)" style="fill: none; stroke: #b0b0b0; stroke-width: 0.8; stroke-linecap: square"/>
     </g>
     <g id="line2d_44">
      <g>
       <use xlink:href="#m425b3fbfd9" x="451.186946" y="152.12" style="stroke: #000000; stroke-width: 0.8"/>
      </g>
     </g>
     <g id="text_22">
      <!-- 20 -->
      <g transform="translate(444.824446 166.718437) scale(0.1 -0.1)">
       <use xlink:href="#DejaVuSans-32"/>
       <use xlink:href="#DejaVuSans-30" x="63.623047"/>
      </g>
     </g>
    </g>
    <g id="xtick_9">
     <g id="line2d_45">
      <path d="M 504.017187 152.12 
L 504.017187 10.8 
" clip-path="url(#p9207506052)" style="fill: none; stroke: #b0b0b0; stroke-width: 0.8; stroke-linecap: square"/>
     </g>
     <g id="line2d_46">
      <g>
       <use xlink:href="#m425b3fbfd9" x="504.017187" y="152.12" style="stroke: #000000; stroke-width: 0.8"/>
      </g>
     </g>
     <g id="text_23">
      <!-- 40 -->
      <g transform="translate(497.654687 166.718437) scale(0.1 -0.1)">
       <use xlink:href="#DejaVuSans-34"/>
       <use xlink:href="#DejaVuSans-30" x="63.623047"/>
      </g>
     </g>
    </g>
   </g>
   <g id="matplotlib.axis_6">
    <g id="ytick_10">
     <g id="line2d_47">
      <path d="M 391.885 139.743578 
L 534.2625 139.743578 
" clip-path="url(#p9207506052)" style="fill: none; stroke: #b0b0b0; stroke-width: 0.8; stroke-linecap: square"/>
     </g>
     <g id="line2d_48">
      <g>
       <use xlink:href="#m47a2226d77" x="391.885" y="139.743578" style="stroke: #000000; stroke-width: 0.8"/>
      </g>
     </g>
     <g id="text_24">
      <!-- −4 -->
      <g transform="translate(370.142812 143.542797) scale(0.1 -0.1)">
       <use xlink:href="#DejaVuSans-2212"/>
       <use xlink:href="#DejaVuSans-34" x="83.789062"/>
      </g>
     </g>
    </g>
    <g id="ytick_11">
     <g id="line2d_49">
      <path d="M 391.885 110.900019 
L 534.2625 110.900019 
" clip-path="url(#p9207506052)" style="fill: none; stroke: #b0b0b0; stroke-width: 0.8; stroke-linecap: square"/>
     </g>
     <g id="line2d_50">
      <g>
       <use xlink:href="#m47a2226d77" x="391.885" y="110.900019" style="stroke: #000000; stroke-width: 0.8"/>
      </g>
     </g>
     <g id="text_25">
      <!-- −3 -->
      <g transform="translate(370.142812 114.699238) scale(0.1 -0.1)">
       <use xlink:href="#DejaVuSans-2212"/>
       <use xlink:href="#DejaVuSans-33" x="83.789062"/>
      </g>
     </g>
    </g>
    <g id="ytick_12">
     <g id="line2d_51">
      <path d="M 391.885 82.05646 
L 534.2625 82.05646 
" clip-path="url(#p9207506052)" style="fill: none; stroke: #b0b0b0; stroke-width: 0.8; stroke-linecap: square"/>
     </g>
     <g id="line2d_52">
      <g>
       <use xlink:href="#m47a2226d77" x="391.885" y="82.05646" style="stroke: #000000; stroke-width: 0.8"/>
      </g>
     </g>
     <g id="text_26">
      <!-- −2 -->
      <g transform="translate(370.142812 85.855679) scale(0.1 -0.1)">
       <use xlink:href="#DejaVuSans-2212"/>
       <use xlink:href="#DejaVuSans-32" x="83.789062"/>
      </g>
     </g>
    </g>
    <g id="ytick_13">
     <g id="line2d_53">
      <path d="M 391.885 53.212901 
L 534.2625 53.212901 
" clip-path="url(#p9207506052)" style="fill: none; stroke: #b0b0b0; stroke-width: 0.8; stroke-linecap: square"/>
     </g>
     <g id="line2d_54">
      <g>
       <use xlink:href="#m47a2226d77" x="391.885" y="53.212901" style="stroke: #000000; stroke-width: 0.8"/>
      </g>
     </g>
     <g id="text_27">
      <!-- −1 -->
      <g transform="translate(370.142812 57.01212) scale(0.1 -0.1)">
       <use xlink:href="#DejaVuSans-2212"/>
       <use xlink:href="#DejaVuSans-31" x="83.789062"/>
      </g>
     </g>
    </g>
    <g id="ytick_14">
     <g id="line2d_55">
      <path d="M 391.885 24.369342 
L 534.2625 24.369342 
" clip-path="url(#p9207506052)" style="fill: none; stroke: #b0b0b0; stroke-width: 0.8; stroke-linecap: square"/>
     </g>
     <g id="line2d_56">
      <g>
       <use xlink:href="#m47a2226d77" x="391.885" y="24.369342" style="stroke: #000000; stroke-width: 0.8"/>
      </g>
     </g>
     <g id="text_28">
      <!-- 0 -->
      <g transform="translate(378.5225 28.168561) scale(0.1 -0.1)">
       <use xlink:href="#DejaVuSans-30"/>
      </g>
     </g>
    </g>
   </g>
   <g id="line2d_57">
    <path d="M 398.356705 115.70004 
L 400.998217 138.99729 
L 403.639729 99.11101 
L 406.281241 75.115056 
L 408.922753 98.35026 
L 411.564265 104.289436 
L 414.205777 116.594847 
L 416.847289 141.605386 
L 419.488801 101.688402 
L 422.130313 81.78531 
L 424.771825 103.542976 
L 427.413337 102.048852 
L 430.054849 121.005529 
L 432.696361 142.018629 
L 435.337873 110.714392 
L 437.979385 86.449303 
L 440.620897 112.466584 
L 443.26241 98.892464 
L 445.903922 120.29324 
L 448.545434 143.340881 
L 451.186946 110.802836 
L 453.828458 86.652878 
L 456.46997 112.644632 
L 459.111482 109.776756 
L 461.752994 119.815953 
L 464.394506 143.013598 
L 467.036018 104.728151 
L 469.67753 81.285484 
L 472.319042 109.425996 
L 474.960554 109.690905 
L 477.602066 120.083627 
L 480.243578 144.317763 
L 482.88509 102.748639 
L 485.526603 81.59217 
L 488.168115 107.58292 
L 490.809627 108.794179 
L 493.451139 121.722701 
L 496.092651 145.696364 
L 498.734163 106.20434 
L 501.375675 80.081198 
L 504.017187 107.13325 
L 506.658699 109.594389 
L 509.300211 122.728081 
L 511.941723 145.15114 
L 514.583235 105.109087 
L 517.224747 79.441789 
L 519.866259 102.318795 
L 522.507771 103.736779 
L 525.149283 118.413999 
L 527.790795 135.217104 
" clip-path="url(#p9207506052)" style="fill: none; stroke: #ffd700; stroke-width: 1.5; stroke-linecap: square"/>
   </g>
   <g id="line2d_58">
    <path d="M 398.356705 30.09898 
L 400.998217 40.633353 
L 403.639729 26.847631 
L 406.281241 20.431634 
L 408.922753 19.261148 
L 411.564265 22.859309 
L 414.205777 32.786762 
L 416.847289 41.370327 
L 419.488801 25.330334 
L 422.130313 19.781365 
L 424.771825 20.171526 
L 427.413337 22.90266 
L 430.054849 32.743411 
L 432.696361 40.893463 
L 435.337873 27.627955 
L 437.979385 20.171526 
L 440.620897 20.30158 
L 443.26241 22.339093 
L 445.903922 33.480384 
L 448.545434 40.980164 
L 451.186946 26.890982 
L 453.828458 18.524176 
L 456.46997 20.214878 
L 459.111482 21.60212 
L 461.752994 33.567087 
L 464.394506 40.459948 
L 467.036018 29.058549 
L 469.67753 19.131094 
L 472.319042 19.998121 
L 474.960554 17.223636 
L 477.602066 32.136493 
L 480.243578 40.286542 
L 482.88509 37.295301 
L 485.526603 23.466227 
L 488.168115 20.995202 
L 490.809627 22.599201 
L 493.451139 29.578765 
L 496.092651 38.855949 
L 498.734163 38.379084 
L 501.375675 26.977685 
L 504.017187 20.821796 
L 506.658699 23.726335 
L 509.300211 30.229034 
L 511.941723 40.286542 
L 514.583235 27.194442 
L 517.224747 21.298661 
L 519.866259 19.564608 
L 522.507771 22.122336 
L 525.149283 32.396601 
L 527.790795 41.066867 
" clip-path="url(#p9207506052)" style="fill: none; stroke: #0c5da5; stroke-width: 1.5; stroke-linecap: square"/>
   </g>
   <g id="patch_15">
    <path d="M 391.885 152.12 
L 391.885 10.8 
" style="fill: none; stroke: #000000; stroke-width: 0.8; stroke-linejoin: miter; stroke-linecap: square"/>
   </g>
   <g id="patch_16">
    <path d="M 534.2625 152.12 
L 534.2625 10.8 
" style="fill: none; stroke: #000000; stroke-width: 0.8; stroke-linejoin: miter; stroke-linecap: square"/>
   </g>
   <g id="patch_17">
    <path d="M 391.885 152.12 
L 534.2625 152.12 
" style="fill: none; stroke: #000000; stroke-width: 0.8; stroke-linejoin: miter; stroke-linecap: square"/>
   </g>
   <g id="patch_18">
    <path d="M 391.885 10.8 
L 534.2625 10.8 
" style="fill: none; stroke: #000000; stroke-width: 0.8; stroke-linejoin: miter; stroke-linecap: square"/>
   </g>
   <g id="legend_3">
    <g id="patch_19">
     <path d="M 453.03125 48.15625 
L 527.2625 48.15625 
Q 529.2625 48.15625 529.2625 46.15625 
L 529.2625 17.8 
Q 529.2625 15.8 527.2625 15.8 
L 453.03125 15.8 
Q 451.03125 15.8 451.03125 17.8 
L 451.03125 46.15625 
Q 451.03125 48.15625 453.03125 48.15625 
z
" style="fill: #ffffff; opacity: 0.8; stroke: #cccccc; stroke-linejoin: miter"/>
    </g>
    <g id="line2d_59">
     <path d="M 455.03125 23.898438 
L 465.03125 23.898438 
L 475.03125 23.898438 
" style="fill: none; stroke: #ffd700; stroke-width: 1.5; stroke-linecap: square"/>
    </g>
    <g id="text_29">
     <!-- Residual -->
     <g transform="translate(483.03125 27.398438) scale(0.1 -0.1)">
      <defs>
       <path id="DejaVuSans-52" d="M 2841 2188 
Q 3044 2119 3236 1894 
Q 3428 1669 3622 1275 
L 4263 0 
L 3584 0 
L 2988 1197 
Q 2756 1666 2539 1819 
Q 2322 1972 1947 1972 
L 1259 1972 
L 1259 0 
L 628 0 
L 628 4666 
L 2053 4666 
Q 2853 4666 3247 4331 
Q 3641 3997 3641 3322 
Q 3641 2881 3436 2590 
Q 3231 2300 2841 2188 
z
M 1259 4147 
L 1259 2491 
L 2053 2491 
Q 2509 2491 2742 2702 
Q 2975 2913 2975 3322 
Q 2975 3731 2742 3939 
Q 2509 4147 2053 4147 
L 1259 4147 
z
" transform="scale(0.015625)"/>
       <path id="DejaVuSans-73" d="M 2834 3397 
L 2834 2853 
Q 2591 2978 2328 3040 
Q 2066 3103 1784 3103 
Q 1356 3103 1142 2972 
Q 928 2841 928 2578 
Q 928 2378 1081 2264 
Q 1234 2150 1697 2047 
L 1894 2003 
Q 2506 1872 2764 1633 
Q 3022 1394 3022 966 
Q 3022 478 2636 193 
Q 2250 -91 1575 -91 
Q 1294 -91 989 -36 
Q 684 19 347 128 
L 347 722 
Q 666 556 975 473 
Q 1284 391 1588 391 
Q 1994 391 2212 530 
Q 2431 669 2431 922 
Q 2431 1156 2273 1281 
Q 2116 1406 1581 1522 
L 1381 1569 
Q 847 1681 609 1914 
Q 372 2147 372 2553 
Q 372 3047 722 3315 
Q 1072 3584 1716 3584 
Q 2034 3584 2315 3537 
Q 2597 3491 2834 3397 
z
" transform="scale(0.015625)"/>
       <path id="DejaVuSans-69" d="M 603 3500 
L 1178 3500 
L 1178 0 
L 603 0 
L 603 3500 
z
M 603 4863 
L 1178 4863 
L 1178 4134 
L 603 4134 
L 603 4863 
z
" transform="scale(0.015625)"/>
       <path id="DejaVuSans-64" d="M 2906 2969 
L 2906 4863 
L 3481 4863 
L 3481 0 
L 2906 0 
L 2906 525 
Q 2725 213 2448 61 
Q 2172 -91 1784 -91 
Q 1150 -91 751 415 
Q 353 922 353 1747 
Q 353 2572 751 3078 
Q 1150 3584 1784 3584 
Q 2172 3584 2448 3432 
Q 2725 3281 2906 2969 
z
M 947 1747 
Q 947 1113 1208 752 
Q 1469 391 1925 391 
Q 2381 391 2643 752 
Q 2906 1113 2906 1747 
Q 2906 2381 2643 2742 
Q 2381 3103 1925 3103 
Q 1469 3103 1208 2742 
Q 947 2381 947 1747 
z
" transform="scale(0.015625)"/>
      </defs>
      <use xlink:href="#DejaVuSans-52"/>
      <use xlink:href="#DejaVuSans-65" x="64.982422"/>
      <use xlink:href="#DejaVuSans-73" x="126.505859"/>
      <use xlink:href="#DejaVuSans-69" x="178.605469"/>
      <use xlink:href="#DejaVuSans-64" x="206.388672"/>
      <use xlink:href="#DejaVuSans-75" x="269.865234"/>
      <use xlink:href="#DejaVuSans-61" x="333.244141"/>
      <use xlink:href="#DejaVuSans-6c" x="394.523438"/>
     </g>
    </g>
    <g id="line2d_60">
     <path d="M 455.03125 38.576563 
L 465.03125 38.576563 
L 475.03125 38.576563 
" style="fill: none; stroke: #0c5da5; stroke-width: 1.5; stroke-linecap: square"/>
    </g>
    <g id="text_30">
     <!-- True -->
     <g transform="translate(483.03125 42.076563) scale(0.1 -0.1)">
      <use xlink:href="#DejaVuSans-54"/>
      <use xlink:href="#DejaVuSans-72" x="46.333984"/>
      <use xlink:href="#DejaVuSans-75" x="87.447266"/>
      <use xlink:href="#DejaVuSans-65" x="150.826172"/>
     </g>
    </g>
   </g>
  </g>
  <g id="axes_4">
   <g id="patch_20">
    <path d="M 566.8225 152.12 
L 709.2 152.12 
L 709.2 10.8 
L 566.8225 10.8 
z
" style="fill: #ffffff"/>
   </g>
   <g id="matplotlib.axis_7">
    <g id="xtick_10">
     <g id="line2d_61">
      <path d="M 573.294205 152.12 
L 573.294205 10.8 
" clip-path="url(#pa679cb9791)" style="fill: none; stroke: #b0b0b0; stroke-width: 0.8; stroke-linecap: square"/>
     </g>
     <g id="line2d_62">
      <g>
       <use xlink:href="#m425b3fbfd9" x="573.294205" y="152.12" style="stroke: #000000; stroke-width: 0.8"/>
      </g>
     </g>
     <g id="text_31">
      <!-- 0 -->
      <g transform="translate(570.112955 166.718437) scale(0.1 -0.1)">
       <use xlink:href="#DejaVuSans-30"/>
      </g>
     </g>
    </g>
    <g id="xtick_11">
     <g id="line2d_63">
      <path d="M 626.124446 152.12 
L 626.124446 10.8 
" clip-path="url(#pa679cb9791)" style="fill: none; stroke: #b0b0b0; stroke-width: 0.8; stroke-linecap: square"/>
     </g>
     <g id="line2d_64">
      <g>
       <use xlink:href="#m425b3fbfd9" x="626.124446" y="152.12" style="stroke: #000000; stroke-width: 0.8"/>
      </g>
     </g>
     <g id="text_32">
      <!-- 20 -->
      <g transform="translate(619.761946 166.718437) scale(0.1 -0.1)">
       <use xlink:href="#DejaVuSans-32"/>
       <use xlink:href="#DejaVuSans-30" x="63.623047"/>
      </g>
     </g>
    </g>
    <g id="xtick_12">
     <g id="line2d_65">
      <path d="M 678.954687 152.12 
L 678.954687 10.8 
" clip-path="url(#pa679cb9791)" style="fill: none; stroke: #b0b0b0; stroke-width: 0.8; stroke-linecap: square"/>
     </g>
     <g id="line2d_66">
      <g>
       <use xlink:href="#m425b3fbfd9" x="678.954687" y="152.12" style="stroke: #000000; stroke-width: 0.8"/>
      </g>
     </g>
     <g id="text_33">
      <!-- 40 -->
      <g transform="translate(672.592187 166.718437) scale(0.1 -0.1)">
       <use xlink:href="#DejaVuSans-34"/>
       <use xlink:href="#DejaVuSans-30" x="63.623047"/>
      </g>
     </g>
    </g>
   </g>
   <g id="matplotlib.axis_8">
    <g id="ytick_15">
     <g id="line2d_67">
      <path d="M 566.8225 131.103097 
L 709.2 131.103097 
" clip-path="url(#pa679cb9791)" style="fill: none; stroke: #b0b0b0; stroke-width: 0.8; stroke-linecap: square"/>
     </g>
     <g id="line2d_68">
      <g>
       <use xlink:href="#m47a2226d77" x="566.8225" y="131.103097" style="stroke: #000000; stroke-width: 0.8"/>
      </g>
     </g>
     <g id="text_34">
      <!-- 0 -->
      <g transform="translate(553.46 134.902316) scale(0.1 -0.1)">
       <use xlink:href="#DejaVuSans-30"/>
      </g>
     </g>
    </g>
    <g id="ytick_16">
     <g id="line2d_69">
      <path d="M 566.8225 106.344428 
L 709.2 106.344428 
" clip-path="url(#pa679cb9791)" style="fill: none; stroke: #b0b0b0; stroke-width: 0.8; stroke-linecap: square"/>
     </g>
     <g id="line2d_70">
      <g>
       <use xlink:href="#m47a2226d77" x="566.8225" y="106.344428" style="stroke: #000000; stroke-width: 0.8"/>
      </g>
     </g>
     <g id="text_35">
      <!-- 1 -->
      <g transform="translate(553.46 110.143647) scale(0.1 -0.1)">
       <use xlink:href="#DejaVuSans-31"/>
      </g>
     </g>
    </g>
    <g id="ytick_17">
     <g id="line2d_71">
      <path d="M 566.8225 81.58576 
L 709.2 81.58576 
" clip-path="url(#pa679cb9791)" style="fill: none; stroke: #b0b0b0; stroke-width: 0.8; stroke-linecap: square"/>
     </g>
     <g id="line2d_72">
      <g>
       <use xlink:href="#m47a2226d77" x="566.8225" y="81.58576" style="stroke: #000000; stroke-width: 0.8"/>
      </g>
     </g>
     <g id="text_36">
      <!-- 2 -->
      <g transform="translate(553.46 85.384978) scale(0.1 -0.1)">
       <use xlink:href="#DejaVuSans-32"/>
      </g>
     </g>
    </g>
    <g id="ytick_18">
     <g id="line2d_73">
      <path d="M 566.8225 56.827091 
L 709.2 56.827091 
" clip-path="url(#pa679cb9791)" style="fill: none; stroke: #b0b0b0; stroke-width: 0.8; stroke-linecap: square"/>
     </g>
     <g id="line2d_74">
      <g>
       <use xlink:href="#m47a2226d77" x="566.8225" y="56.827091" style="stroke: #000000; stroke-width: 0.8"/>
      </g>
     </g>
     <g id="text_37">
      <!-- 3 -->
      <g transform="translate(553.46 60.62631) scale(0.1 -0.1)">
       <use xlink:href="#DejaVuSans-33"/>
      </g>
     </g>
    </g>
    <g id="ytick_19">
     <g id="line2d_75">
      <path d="M 566.8225 32.068422 
L 709.2 32.068422 
" clip-path="url(#pa679cb9791)" style="fill: none; stroke: #b0b0b0; stroke-width: 0.8; stroke-linecap: square"/>
     </g>
     <g id="line2d_76">
      <g>
       <use xlink:href="#m47a2226d77" x="566.8225" y="32.068422" style="stroke: #000000; stroke-width: 0.8"/>
      </g>
     </g>
     <g id="text_38">
      <!-- 4 -->
      <g transform="translate(553.46 35.867641) scale(0.1 -0.1)">
       <use xlink:href="#DejaVuSans-34"/>
      </g>
     </g>
    </g>
   </g>
   <g id="line2d_77">
    <path d="M 573.294205 81.361608 
L 575.935717 99.108981 
L 578.577229 79.183699 
L 581.218741 25.083442 
L 583.860253 55.377143 
L 586.501765 63.427921 
L 589.143277 79.678719 
L 591.784789 94.025103 
L 594.426301 75.976545 
L 597.067813 25.909214 
L 599.709325 58.816761 
L 602.350837 65.834225 
L 604.992349 80.618075 
L 607.633861 95.797094 
L 610.275373 79.581899 
L 612.916885 24.836251 
L 615.558397 56.649401 
L 618.19991 66.043012 
L 620.841422 79.0943 
L 623.482934 94.787977 
L 626.124446 76.154329 
L 628.765958 22.749826 
L 631.40747 52.089172 
L 634.048982 64.635642 
L 636.690494 76.836525 
L 639.332006 92.339322 
L 641.973518 72.992196 
L 644.61503 19.08614 
L 647.256542 48.677841 
L 649.898054 62.286017 
L 652.539566 74.778404 
L 655.181078 89.229837 
L 657.82259 71.172466 
L 660.464103 17.721371 
L 663.105615 46.314038 
L 665.747127 60.051181 
L 668.388639 73.859773 
L 671.030151 89.566841 
L 673.671663 69.937609 
L 676.313175 17.223636 
L 678.954687 42.696978 
L 681.596199 58.399601 
L 684.237711 73.665868 
L 686.879223 91.494079 
L 689.520735 68.168407 
L 692.162247 21.797271 
L 694.803759 54.594799 
L 697.445271 56.491893 
L 700.086783 71.304018 
L 702.728295 103.25303 
" clip-path="url(#pa679cb9791)" style="fill: none; stroke: #ff6b35; stroke-width: 1.5; stroke-linecap: square"/>
   </g>
   <g id="line2d_78">
    <path d="M 573.294205 136.021291 
L 575.935717 145.063762 
L 578.577229 133.230405 
L 581.218741 127.723056 
L 583.860253 126.718337 
L 586.501765 129.806918 
L 589.143277 138.328423 
L 591.784789 145.696364 
L 594.426301 131.927991 
L 597.067813 127.164879 
L 599.709325 127.499786 
L 602.350837 129.84413 
L 604.992349 138.291212 
L 607.633861 145.287034 
L 610.275373 133.900218 
L 612.916885 127.499786 
L 615.558397 127.611421 
L 618.19991 129.360376 
L 620.841422 138.923813 
L 623.482934 145.361457 
L 626.124446 133.267617 
L 628.765958 126.085737 
L 631.40747 127.536998 
L 634.048982 128.727775 
L 636.690494 138.998236 
L 639.332006 144.914915 
L 641.973518 135.128208 
L 644.61503 126.606702 
L 647.256542 127.350938 
L 649.898054 124.969382 
L 652.539566 137.770247 
L 655.181078 144.766067 
L 657.82259 142.198452 
L 660.464103 130.327883 
L 663.105615 128.20681 
L 665.747127 129.583647 
L 668.388639 135.574749 
L 671.030151 143.538078 
L 673.671663 143.128748 
L 676.313175 133.34204 
L 678.954687 128.057963 
L 681.596199 130.551154 
L 684.237711 136.132926 
L 686.879223 144.766067 
L 689.520735 133.5281 
L 692.162247 128.467293 
L 694.803759 126.97882 
L 697.445271 129.174317 
L 700.086783 137.993517 
L 702.728295 145.435881 
" clip-path="url(#pa679cb9791)" style="fill: none; stroke: #0c5da5; stroke-width: 1.5; stroke-linecap: square"/>
   </g>
   <g id="patch_21">
    <path d="M 566.8225 152.12 
L 566.8225 10.8 
" style="fill: none; stroke: #000000; stroke-width: 0.8; stroke-linejoin: miter; stroke-linecap: square"/>
   </g>
   <g id="patch_22">
    <path d="M 709.2 152.12 
L 709.2 10.8 
" style="fill: none; stroke: #000000; stroke-width: 0.8; stroke-linejoin: miter; stroke-linecap: square"/>
   </g>
   <g id="patch_23">
    <path d="M 566.8225 152.12 
L 709.2 152.12 
" style="fill: none; stroke: #000000; stroke-width: 0.8; stroke-linejoin: miter; stroke-linecap: square"/>
   </g>
   <g id="patch_24">
    <path d="M 566.8225 10.8 
L 709.2 10.8 
" style="fill: none; stroke: #000000; stroke-width: 0.8; stroke-linejoin: miter; stroke-linecap: square"/>
   </g>
   <g id="legend_4">
    <g id="patch_25">
     <path d="M 633.6875 48.15625 
L 702.2 48.15625 
Q 704.2 48.15625 704.2 46.15625 
L 704.2 17.8 
Q 704.2 15.8 702.2 15.8 
L 633.6875 15.8 
Q 631.6875 15.8 631.6875 17.8 
L 631.6875 46.15625 
Q 631.6875 48.15625 633.6875 48.15625 
z
" style="fill: #ffffff; opacity: 0.8; stroke: #cccccc; stroke-linejoin: miter"/>
    </g>
    <g id="line2d_79">
     <path d="M 635.6875 23.898438 
L 645.6875 23.898438 
L 655.6875 23.898438 
" style="fill: none; stroke: #ff6b35; stroke-width: 1.5; stroke-linecap: square"/>
    </g>
    <g id="text_39">
     <!-- MLP - E -->
     <g transform="translate(663.6875 27.398438) scale(0.1 -0.1)">
      <use xlink:href="#DejaVuSans-4d"/>
      <use xlink:href="#DejaVuSans-4c" x="86.279297"/>
      <use xlink:href="#DejaVuSans-50" x="141.992188"/>
      <use xlink:href="#DejaVuSans-20" x="202.294922"/>
      <use xlink:href="#DejaVuSans-2d" x="234.082031"/>
      <use xlink:href="#DejaVuSans-20" x="270.166016"/>
      <use xlink:href="#DejaVuSans-45" x="301.953125"/>
     </g>
    </g>
    <g id="line2d_80">
     <path d="M 635.6875 38.576563 
L 645.6875 38.576563 
L 655.6875 38.576563 
" style="fill: none; stroke: #0c5da5; stroke-width: 1.5; stroke-linecap: square"/>
    </g>
    <g id="text_40">
     <!-- True -->
     <g transform="translate(663.6875 42.076563) scale(0.1 -0.1)">
      <use xlink:href="#DejaVuSans-54"/>
      <use xlink:href="#DejaVuSans-72" x="46.333984"/>
      <use xlink:href="#DejaVuSans-75" x="87.447266"/>
      <use xlink:href="#DejaVuSans-65" x="150.826172"/>
     </g>
    </g>
   </g>
  </g>
 </g>
 <defs>
  <clipPath id="pf079dcbb16">
   <rect x="42.01" y="10.8" width="142.3775" height="141.32"/>
  </clipPath>
  <clipPath id="p0a05be8696">
   <rect x="216.9475" y="10.8" width="142.3775" height="141.32"/>
  </clipPath>
  <clipPath id="p9207506052">
   <rect x="391.885" y="10.8" width="142.3775" height="141.32"/>
  </clipPath>
  <clipPath id="pa679cb9791">
   <rect x="566.8225" y="10.8" width="142.3775" height="141.32"/>
  </clipPath>
 </defs>
</svg>
